# Blender 4.5.3 LTS
# www.blender.org
mtllib door.mtl
o Cube
v -0.495000 -0.995000 0.015000
v -0.495000 0.995000 0.015000
v -0.495000 -0.995000 -0.015000
v -0.495000 0.995000 -0.015000
v 0.495000 -0.995000 0.015000
v 0.495000 0.995000 0.015000
v 0.495000 -0.995000 -0.015000
v 0.495000 0.995000 -0.015000
vn -1.0000 -0.0000 -0.0000
vn -0.0000 -0.0000 -1.0000
vn 1.0000 -0.0000 -0.0000
vn -0.0000 -0.0000 1.0000
vn -0.0000 -1.0000 -0.0000
vn -0.0000 1.0000 -0.0000
vt 0.333333 0.455364
vt 0.244062 0.455364
vt 0.244062 0.366093
vt 0.333333 0.366093
vt 0.333333 0.544636
vt 0.244062 0.544636
vt 0.244062 0.455364
vt 0.422605 0.455364
vt 0.333333 0.455364
vt 0.333333 0.366093
vt 0.422605 0.366093
vt 0.422605 0.544636
vt 0.333333 0.544636
vt 0.333333 0.633907
vt 0.244062 0.633907
vt 0.244062 0.544636
vt 0.422605 0.633907
s 0
f 1/1/1 2/2/1 4/3/1 3/4/1
f 3/5/2 4/6/2 8/7/2 7/1/2
f 7/8/3 8/9/3 6/10/3 5/11/3
f 5/12/4 6/5/4 2/1/4 1/8/4
f 3/13/5 7/14/5 5/15/5 1/16/5
f 8/12/6 4/17/6 2/14/6 6/5/6
