# Blender 4.5.3 LTS
# www.blender.org
mtllib floor.mtl
o Cube
v -25.000000 -0.005000 25.000000
v -25.000000 0.015000 25.000000
v -25.000000 -0.005000 -25.000000
v -25.000000 0.015000 -25.000000
v 25.000000 -0.005000 25.000000
v 25.000000 0.015000 25.000000
v 25.000000 -0.005000 -25.000000
v 25.000000 0.015000 -25.000000
vn -1.0000 -0.0000 -0.0000
vn -0.0000 -0.0000 -1.0000
vn 1.0000 -0.0000 -0.0000
vn -0.0000 -0.0000 1.0000
vn -0.0000 -1.0000 -0.0000
vn -0.0000 1.0000 -0.0000
vt 0.333333 -8.835267
vt -18.337204 -8.835267
vt -18.337204 -27.505804
vt 0.333332 -27.505804
vt 0.333333 9.835269
vt -18.337204 9.835269
vt 0.333332 -8.835267
vt 19.003868 -27.505804
vt 19.003872 -8.835269
vt 19.003868 -8.835267
vt 19.003868 9.835269
vt 0.333332 9.835273
vt 0.333330 -8.835266
vt 0.333332 9.835269
vt 0.333333 28.505804
vt -18.337204 28.505804
vt 19.003868 9.835266
vt 19.003868 28.505804
s 0
f 1/1/1 2/2/1 4/3/1 3/4/1
f 3/5/2 4/6/2 8/2/2 7/7/2
f 7/8/3 8/9/3 6/1/3 5/4/3
f 5/10/4 6/11/4 2/12/4 1/13/4
f 3/14/5 7/15/5 5/16/5 1/6/5
f 8/17/6 4/18/6 2/15/6 6/14/6
