# Blender 4.5.3 LTS
# www.blender.org
mtllib handle.mtl
o Cylinder
v 0.000000 0.060000 -0.125000
v 0.000000 0.060000 -0.025000
v 0.001951 0.059808 -0.125000
v 0.001951 0.059808 -0.025000
v 0.003827 0.059239 -0.125000
v 0.003827 0.059239 -0.025000
v 0.005556 0.058315 -0.125000
v 0.005556 0.058315 -0.025000
v 0.007071 0.057071 -0.125000
v 0.007071 0.057071 -0.025000
v 0.008315 0.055556 -0.125000
v 0.008315 0.055556 -0.025000
v 0.009239 0.053827 -0.125000
v 0.009239 0.053827 -0.025000
v 0.009808 0.051951 -0.125000
v 0.009808 0.051951 -0.025000
v 0.010000 0.050000 -0.125000
v 0.010000 0.050000 -0.025000
v 0.009808 0.048049 -0.125000
v 0.009808 0.048049 -0.025000
v 0.009239 0.046173 -0.125000
v 0.009239 0.046173 -0.025000
v 0.008315 0.044444 -0.125000
v 0.008315 0.044444 -0.025000
v 0.007071 0.042929 -0.125000
v 0.007071 0.042929 -0.025000
v 0.005556 0.041685 -0.125000
v 0.005556 0.041685 -0.025000
v 0.003827 0.040761 -0.125000
v 0.003827 0.040761 -0.025000
v 0.001951 0.040192 -0.125000
v 0.001951 0.040192 -0.025000
v 0.000000 0.040000 -0.125000
v 0.000000 0.040000 -0.025000
v -0.001951 0.040192 -0.125000
v -0.001951 0.040192 -0.025000
v -0.003827 0.040761 -0.125000
v -0.003827 0.040761 -0.025000
v -0.005556 0.041685 -0.125000
v -0.005556 0.041685 -0.025000
v -0.007071 0.042929 -0.125000
v -0.007071 0.042929 -0.025000
v -0.008315 0.044444 -0.125000
v -0.008315 0.044444 -0.025000
v -0.009239 0.046173 -0.125000
v -0.009239 0.046173 -0.025000
v -0.009808 0.048049 -0.125000
v -0.009808 0.048049 -0.025000
v -0.010000 0.050000 -0.125000
v -0.010000 0.050000 -0.025000
v -0.009808 0.051951 -0.125000
v -0.009808 0.051951 -0.025000
v -0.009239 0.053827 -0.125000
v -0.009239 0.053827 -0.025000
v -0.008315 0.055556 -0.125000
v -0.008315 0.055556 -0.025000
v -0.007071 0.057071 -0.125000
v -0.007071 0.057071 -0.025000
v -0.005556 0.058315 -0.125000
v -0.005556 0.058315 -0.025000
v -0.003827 0.059239 -0.125000
v -0.003827 0.059239 -0.025000
v -0.001951 0.059808 -0.125000
v -0.001951 0.059808 -0.025000
v 0.000000 0.000000 -0.170000
v -0.003902 0.000000 -0.169616
v -0.007654 0.000000 -0.168478
v -0.011111 0.000000 -0.166629
v -0.014142 0.000000 -0.164142
v -0.016629 0.000000 -0.161111
v -0.018478 0.000000 -0.157654
v -0.019616 0.000000 -0.153902
v -0.020000 0.000000 -0.150000
v -0.019616 0.000000 -0.146098
v -0.018478 0.000000 -0.142346
v -0.016629 0.000000 -0.138889
v -0.014142 0.000000 -0.135858
v -0.011111 0.000000 -0.133371
v -0.007654 0.000000 -0.131522
v -0.003902 0.000000 -0.130384
v 0.000000 0.000000 -0.130000
v 0.003902 0.000000 -0.130384
v 0.007654 0.000000 -0.131522
v 0.011111 0.000000 -0.133371
v 0.014142 0.000000 -0.135858
v 0.016629 0.000000 -0.138889
v 0.018478 0.000000 -0.142346
v 0.019616 0.000000 -0.146098
v 0.020000 0.000000 -0.150000
v 0.019616 0.000000 -0.153902
v 0.018478 0.000000 -0.157654
v 0.016629 0.000000 -0.161111
v 0.014142 0.000000 -0.164142
v 0.011111 0.000000 -0.166629
v 0.007654 0.000000 -0.168478
v 0.003902 0.000000 -0.169616
v 0.000000 0.010000 -0.159952
v -0.001941 0.010000 -0.159760
v -0.003808 0.010000 -0.159194
v -0.005529 0.010000 -0.158274
v -0.007037 0.010000 -0.157037
v -0.008274 0.010000 -0.155529
v -0.009194 0.010000 -0.153808
v -0.009760 0.010000 -0.151941
v -0.009952 0.010000 -0.150000
v -0.009760 0.010000 -0.148059
v -0.009194 0.010000 -0.146192
v -0.008274 0.010000 -0.144471
v -0.007037 0.010000 -0.142963
v -0.005529 0.010000 -0.141726
v -0.003808 0.010000 -0.140806
v -0.001941 0.010000 -0.140240
v 0.000000 0.010000 -0.140048
v 0.001941 0.010000 -0.140240
v 0.003808 0.010000 -0.140806
v 0.005529 0.010000 -0.141726
v 0.007037 0.010000 -0.142963
v 0.008274 0.010000 -0.144471
v 0.009194 0.010000 -0.146192
v 0.009760 0.010000 -0.148059
v 0.009952 0.010000 -0.150000
v 0.009760 0.010000 -0.151941
v 0.009194 0.010000 -0.153808
v 0.008274 0.010000 -0.155529
v 0.007037 0.010000 -0.157037
v 0.005529 0.010000 -0.158274
v 0.003808 0.010000 -0.159194
v 0.001941 0.010000 -0.159760
v -0.003902 0.010000 -0.169616
v 0.000000 0.010000 -0.170000
v -0.007654 0.010000 -0.168478
v -0.011111 0.010000 -0.166629
v -0.014142 0.010000 -0.164142
v -0.016629 0.010000 -0.161111
v -0.018478 0.010000 -0.157654
v -0.019616 0.010000 -0.153902
v -0.020000 0.010000 -0.150000
v -0.019616 0.010000 -0.146098
v -0.018478 0.010000 -0.142346
v -0.016629 0.010000 -0.138889
v -0.014142 0.010000 -0.135858
v -0.011111 0.010000 -0.133371
v -0.007654 0.010000 -0.131522
v -0.003902 0.010000 -0.130384
v 0.000000 0.010000 -0.130000
v 0.003902 0.010000 -0.130384
v 0.007654 0.010000 -0.131522
v 0.011111 0.010000 -0.133371
v 0.014142 0.010000 -0.135858
v 0.016629 0.010000 -0.138889
v 0.018478 0.010000 -0.142346
v 0.019616 0.010000 -0.146098
v 0.020000 0.010000 -0.150000
v 0.019616 0.010000 -0.153902
v 0.018478 0.010000 -0.157654
v 0.016629 0.010000 -0.161111
v 0.014142 0.010000 -0.164142
v 0.011111 0.010000 -0.166629
v 0.007654 0.010000 -0.168478
v 0.003902 0.010000 -0.169616
v -0.001941 0.030000 -0.159760
v 0.000000 0.030000 -0.159952
v -0.003808 0.030000 -0.159194
v -0.005529 0.030000 -0.158274
v -0.007037 0.030000 -0.157037
v -0.008274 0.030000 -0.155529
v -0.009194 0.030000 -0.153808
v -0.009760 0.030000 -0.151941
v -0.009952 0.030000 -0.150000
v -0.009760 0.030000 -0.148059
v -0.009194 0.030000 -0.146192
v -0.008274 0.030000 -0.144471
v -0.007037 0.030000 -0.142963
v -0.005529 0.030000 -0.141726
v -0.003808 0.030000 -0.140806
v -0.001941 0.030000 -0.140240
v 0.000000 0.030000 -0.140048
v 0.001941 0.030000 -0.140240
v 0.003808 0.030000 -0.140806
v 0.005529 0.030000 -0.141726
v 0.007037 0.030000 -0.142963
v 0.008274 0.030000 -0.144471
v 0.009194 0.030000 -0.146192
v 0.009760 0.030000 -0.148059
v 0.009952 0.030000 -0.150000
v 0.009760 0.030000 -0.151941
v 0.009194 0.030000 -0.153808
v 0.008274 0.030000 -0.155529
v 0.007037 0.030000 -0.157037
v 0.005529 0.030000 -0.158274
v 0.003808 0.030000 -0.159194
v 0.001941 0.030000 -0.159760
v 0.000000 0.000000 -0.020000
v -0.003902 0.000000 -0.019616
v -0.007654 0.000000 -0.018478
v -0.011111 0.000000 -0.016629
v -0.014142 0.000000 -0.014142
v -0.016629 0.000000 -0.011111
v -0.018478 0.000000 -0.007654
v -0.019616 0.000000 -0.003902
v -0.020000 0.000000 0.000000
v -0.019616 0.000000 0.003902
v -0.018478 0.000000 0.007654
v -0.016629 0.000000 0.011111
v -0.014142 0.000000 0.014142
v -0.011111 0.000000 0.016629
v -0.007654 0.000000 0.018478
v -0.003902 0.000000 0.019616
v 0.000000 0.000000 0.020000
v 0.003902 0.000000 0.019616
v 0.007654 0.000000 0.018478
v 0.011111 0.000000 0.016629
v 0.014142 0.000000 0.014142
v 0.016629 0.000000 0.011111
v 0.018478 0.000000 0.007654
v 0.019616 0.000000 0.003902
v 0.020000 0.000000 0.000000
v 0.019616 0.000000 -0.003902
v 0.018478 0.000000 -0.007654
v 0.016629 0.000000 -0.011111
v 0.014142 0.000000 -0.014142
v 0.011111 0.000000 -0.016629
v 0.007654 0.000000 -0.018478
v 0.003902 0.000000 -0.019616
v 0.000000 0.010000 -0.009952
v -0.001941 0.010000 -0.009760
v -0.003808 0.010000 -0.009194
v -0.005529 0.010000 -0.008274
v -0.007037 0.010000 -0.007037
v -0.008274 0.010000 -0.005529
v -0.009194 0.010000 -0.003808
v -0.009760 0.010000 -0.001941
v -0.009952 0.010000 0.000000
v -0.009760 0.010000 0.001941
v -0.009194 0.010000 0.003808
v -0.008274 0.010000 0.005529
v -0.007037 0.010000 0.007037
v -0.005529 0.010000 0.008274
v -0.003808 0.010000 0.009194
v -0.001941 0.010000 0.009760
v 0.000000 0.010000 0.009952
v 0.001941 0.010000 0.009760
v 0.003808 0.010000 0.009194
v 0.005529 0.010000 0.008274
v 0.007037 0.010000 0.007037
v 0.008274 0.010000 0.005529
v 0.009194 0.010000 0.003808
v 0.009760 0.010000 0.001941
v 0.009952 0.010000 0.000000
v 0.009760 0.010000 -0.001941
v 0.009194 0.010000 -0.003808
v 0.008274 0.010000 -0.005529
v 0.007037 0.010000 -0.007037
v 0.005529 0.010000 -0.008274
v 0.003808 0.010000 -0.009194
v 0.001941 0.010000 -0.009760
v -0.003902 0.010000 -0.019616
v 0.000000 0.010000 -0.020000
v -0.007654 0.010000 -0.018478
v -0.011111 0.010000 -0.016629
v -0.014142 0.010000 -0.014142
v -0.016629 0.010000 -0.011111
v -0.018478 0.010000 -0.007654
v -0.019616 0.010000 -0.003902
v -0.020000 0.010000 0.000000
v -0.019616 0.010000 0.003902
v -0.018478 0.010000 0.007654
v -0.016629 0.010000 0.011111
v -0.014142 0.010000 0.014142
v -0.011111 0.010000 0.016629
v -0.007654 0.010000 0.018478
v -0.003902 0.010000 0.019616
v 0.000000 0.010000 0.020000
v 0.003902 0.010000 0.019616
v 0.007654 0.010000 0.018478
v 0.011111 0.010000 0.016629
v 0.014142 0.010000 0.014142
v 0.016629 0.010000 0.011111
v 0.018478 0.010000 0.007654
v 0.019616 0.010000 0.003902
v 0.020000 0.010000 0.000000
v 0.019616 0.010000 -0.003902
v 0.018478 0.010000 -0.007654
v 0.016629 0.010000 -0.011111
v 0.014142 0.010000 -0.014142
v 0.011111 0.010000 -0.016629
v 0.007654 0.010000 -0.018478
v 0.003902 0.010000 -0.019616
v -0.001941 0.030000 -0.009760
v 0.000000 0.030000 -0.009952
v -0.003808 0.030000 -0.009194
v -0.005529 0.030000 -0.008274
v -0.007037 0.030000 -0.007037
v -0.008274 0.030000 -0.005529
v -0.009194 0.030000 -0.003808
v -0.009760 0.030000 -0.001941
v -0.009952 0.030000 0.000000
v -0.009760 0.030000 0.001941
v -0.009194 0.030000 0.003808
v -0.008274 0.030000 0.005529
v -0.007037 0.030000 0.007037
v -0.005529 0.030000 0.008274
v -0.003808 0.030000 0.009194
v -0.001941 0.030000 0.009760
v 0.000000 0.030000 0.009952
v 0.001941 0.030000 0.009760
v 0.003808 0.030000 0.009194
v 0.005529 0.030000 0.008274
v 0.007037 0.030000 0.007037
v 0.008274 0.030000 0.005529
v 0.009194 0.030000 0.003808
v 0.009760 0.030000 0.001941
v 0.009952 0.030000 0.000000
v 0.009760 0.030000 -0.001941
v 0.009194 0.030000 -0.003808
v 0.008274 0.030000 -0.005529
v 0.007037 0.030000 -0.007037
v 0.005529 0.030000 -0.008274
v 0.003808 0.030000 -0.009194
v 0.001941 0.030000 -0.009760
v 0.001949 0.059795 -0.134586
v 0.001948 0.059159 -0.142894
v 0.001946 0.056053 -0.151067
v 0.001945 0.049028 -0.157013
v 0.001943 0.040227 -0.159307
v 0.003824 0.059227 -0.134567
v 0.003821 0.058602 -0.142782
v 0.003818 0.055586 -0.150744
v 0.003814 0.048775 -0.156505
v 0.003811 0.040150 -0.158746
v 0.005551 0.058304 -0.134536
v 0.005547 0.057697 -0.142600
v 0.005542 0.054827 -0.150220
v 0.005538 0.048365 -0.155681
v 0.005533 0.040024 -0.157834
v 0.007065 0.057062 -0.134496
v 0.007060 0.056480 -0.142356
v 0.007054 0.053807 -0.149515
v 0.007048 0.047813 -0.154571
v 0.007043 0.039855 -0.156607
v 0.008308 0.055549 -0.134446
v 0.008301 0.054996 -0.142059
v 0.008295 0.052563 -0.148655
v 0.008288 0.047139 -0.153219
v 0.008281 0.039649 -0.155112
v 0.009231 0.053822 -0.134389
v 0.009224 0.053304 -0.141719
v 0.009216 0.051144 -0.147675
v 0.009209 0.046371 -0.151676
v 0.009202 0.039413 -0.153406
v 0.009800 0.051949 -0.134327
v 0.009792 0.051468 -0.141351
v 0.009784 0.049605 -0.146610
v 0.009776 0.045538 -0.150002
v 0.009768 0.039158 -0.151555
v 0.009992 0.050001 -0.134263
v 0.009984 0.049558 -0.140968
v 0.009976 0.048004 -0.145504
v 0.009968 0.044671 -0.148262
v 0.009960 0.038893 -0.149630
v 0.009800 0.048052 -0.134199
v 0.009792 0.047648 -0.140584
v 0.009784 0.046403 -0.144397
v 0.009776 0.043805 -0.146521
v 0.009768 0.038627 -0.147706
v 0.009231 0.046179 -0.134137
v 0.009224 0.045812 -0.140216
v 0.009216 0.044863 -0.143333
v 0.009209 0.042971 -0.144847
v 0.009202 0.038372 -0.145855
v 0.008308 0.044453 -0.134080
v 0.008301 0.044119 -0.139877
v 0.008295 0.043445 -0.142353
v 0.008288 0.042203 -0.143304
v 0.008281 0.038136 -0.144149
v 0.007065 0.042939 -0.134030
v 0.007060 0.042636 -0.139579
v 0.007054 0.042201 -0.141493
v 0.007048 0.041530 -0.141952
v 0.007043 0.037930 -0.142654
v 0.005551 0.041697 -0.133989
v 0.005547 0.041419 -0.139335
v 0.005542 0.041181 -0.140788
v 0.005538 0.040978 -0.140842
v 0.005533 0.037761 -0.141427
v 0.003824 0.040774 -0.133959
v 0.003821 0.040514 -0.139153
v 0.003818 0.040422 -0.140264
v 0.003814 0.040567 -0.140018
v 0.003811 0.037635 -0.140515
v 0.001949 0.040206 -0.133940
v 0.001948 0.039957 -0.139041
v 0.001946 0.039955 -0.139941
v 0.001945 0.040314 -0.139510
v 0.001943 0.037558 -0.139954
v -0.000000 0.040014 -0.133934
v -0.000000 0.039769 -0.139004
v -0.000000 0.039798 -0.139832
v -0.000000 0.040229 -0.139338
v -0.000000 0.037532 -0.139764
v -0.001949 0.040206 -0.133940
v -0.001948 0.039957 -0.139041
v -0.001946 0.039955 -0.139941
v -0.001945 0.040314 -0.139510
v -0.001943 0.037558 -0.139954
v -0.003824 0.040774 -0.133959
v -0.003821 0.040514 -0.139153
v -0.003818 0.040422 -0.140264
v -0.003814 0.040567 -0.140018
v -0.003811 0.037635 -0.140515
v -0.005551 0.041697 -0.133989
v -0.005547 0.041419 -0.139335
v -0.005542 0.041181 -0.140788
v -0.005538 0.040978 -0.140842
v -0.005533 0.037761 -0.141427
v -0.007065 0.042939 -0.134030
v -0.007060 0.042636 -0.139579
v -0.007054 0.042201 -0.141493
v -0.007048 0.041530 -0.141952
v -0.007043 0.037930 -0.142654
v -0.008308 0.044453 -0.134080
v -0.008301 0.044119 -0.139877
v -0.008295 0.043445 -0.142353
v -0.008288 0.042203 -0.143304
v -0.008281 0.038136 -0.144149
v -0.009231 0.046179 -0.134137
v -0.009224 0.045812 -0.140216
v -0.009216 0.044863 -0.143333
v -0.009209 0.042971 -0.144847
v -0.009202 0.038372 -0.145855
v -0.009800 0.048052 -0.134199
v -0.009792 0.047648 -0.140584
v -0.009784 0.046403 -0.144397
v -0.009776 0.043805 -0.146521
v -0.009768 0.038627 -0.147706
v -0.009992 0.050001 -0.134263
v -0.009984 0.049558 -0.140968
v -0.009976 0.048004 -0.145504
v -0.009968 0.044671 -0.148262
v -0.009960 0.038893 -0.149630
v -0.009800 0.051949 -0.134327
v -0.009792 0.051468 -0.141351
v -0.009784 0.049605 -0.146610
v -0.009776 0.045538 -0.150002
v -0.009768 0.039158 -0.151555
v -0.009231 0.053822 -0.134389
v -0.009224 0.053304 -0.141719
v -0.009216 0.051144 -0.147675
v -0.009209 0.046371 -0.151676
v -0.009202 0.039413 -0.153406
v -0.008308 0.055549 -0.134446
v -0.008301 0.054996 -0.142059
v -0.008295 0.052563 -0.148655
v -0.008288 0.047139 -0.153219
v -0.008281 0.039649 -0.155112
v -0.007065 0.057062 -0.134496
v -0.007060 0.056480 -0.142356
v -0.007054 0.053807 -0.149515
v -0.007048 0.047813 -0.154571
v -0.007043 0.039855 -0.156607
v -0.005551 0.058304 -0.134536
v -0.005547 0.057697 -0.142600
v -0.005542 0.054827 -0.150220
v -0.005538 0.048365 -0.155681
v -0.005533 0.040024 -0.157834
v -0.003824 0.059227 -0.134567
v -0.003821 0.058602 -0.142782
v -0.003818 0.055586 -0.150744
v -0.003814 0.048775 -0.156505
v -0.003811 0.040150 -0.158746
v -0.001949 0.059795 -0.134586
v -0.001948 0.059159 -0.142894
v -0.001946 0.056053 -0.151067
v -0.001945 0.049028 -0.157013
v -0.001943 0.040227 -0.159307
v 0.000000 0.040253 -0.159497
v -0.000000 0.049114 -0.157185
v -0.000000 0.056210 -0.151176
v -0.000000 0.059347 -0.142931
v -0.000000 0.059987 -0.134592
v -0.000000 0.059987 -0.015408
v -0.000000 0.059347 -0.007069
v -0.000000 0.056210 0.001176
v -0.000000 0.049114 0.007185
v -0.000000 0.040253 0.009497
v -0.001949 0.059795 -0.015414
v -0.001948 0.059159 -0.007106
v -0.001946 0.056053 0.001067
v -0.001945 0.049028 0.007013
v -0.001943 0.040227 0.009307
v -0.003824 0.059227 -0.015433
v -0.003821 0.058602 -0.007218
v -0.003818 0.055586 0.000744
v -0.003814 0.048775 0.006505
v -0.003811 0.040150 0.008746
v -0.005551 0.058304 -0.015464
v -0.005547 0.057697 -0.007400
v -0.005542 0.054827 0.000220
v -0.005538 0.048365 0.005681
v -0.005533 0.040024 0.007834
v -0.007065 0.057062 -0.015504
v -0.007060 0.056480 -0.007644
v -0.007054 0.053807 -0.000485
v -0.007048 0.047813 0.004571
v -0.007043 0.039855 0.006607
v -0.008308 0.055549 -0.015554
v -0.008301 0.054996 -0.007941
v -0.008295 0.052563 -0.001345
v -0.008288 0.047139 0.003219
v -0.008281 0.039649 0.005112
v -0.009231 0.053822 -0.015611
v -0.009224 0.053304 -0.008281
v -0.009216 0.051144 -0.002325
v -0.009209 0.046371 0.001676
v -0.009202 0.039413 0.003406
v -0.009800 0.051949 -0.015673
v -0.009792 0.051468 -0.008649
v -0.009784 0.049605 -0.003390
v -0.009776 0.045538 0.000002
v -0.009768 0.039158 0.001555
v -0.009992 0.050001 -0.015737
v -0.009984 0.049558 -0.009032
v -0.009976 0.048004 -0.004496
v -0.009968 0.044671 -0.001738
v -0.009960 0.038893 -0.000370
v -0.009800 0.048052 -0.015801
v -0.009792 0.047648 -0.009416
v -0.009784 0.046403 -0.005603
v -0.009776 0.043805 -0.003479
v -0.009768 0.038627 -0.002294
v -0.009231 0.046179 -0.015863
v -0.009224 0.045812 -0.009784
v -0.009216 0.044863 -0.006667
v -0.009209 0.042971 -0.005153
v -0.009202 0.038372 -0.004145
v -0.008308 0.044453 -0.015920
v -0.008301 0.044119 -0.010123
v -0.008295 0.043445 -0.007647
v -0.008288 0.042203 -0.006696
v -0.008281 0.038136 -0.005851
v -0.007065 0.042939 -0.015970
v -0.007060 0.042636 -0.010421
v -0.007054 0.042201 -0.008507
v -0.007048 0.041530 -0.008048
v -0.007043 0.037930 -0.007346
v -0.005551 0.041697 -0.016011
v -0.005547 0.041419 -0.010665
v -0.005542 0.041181 -0.009212
v -0.005538 0.040978 -0.009158
v -0.005533 0.037761 -0.008573
v -0.003824 0.040774 -0.016041
v -0.003821 0.040514 -0.010847
v -0.003818 0.040422 -0.009736
v -0.003814 0.040567 -0.009982
v -0.003811 0.037635 -0.009485
v -0.001949 0.040206 -0.016060
v -0.001948 0.039957 -0.010959
v -0.001946 0.039955 -0.010059
v -0.001945 0.040314 -0.010490
v -0.001943 0.037558 -0.010046
v -0.000000 0.040014 -0.016066
v -0.000000 0.039769 -0.010996
v -0.000000 0.039798 -0.010168
v -0.000000 0.040229 -0.010662
v -0.000000 0.037532 -0.010236
v 0.001949 0.040206 -0.016060
v 0.001948 0.039957 -0.010959
v 0.001946 0.039955 -0.010059
v 0.001945 0.040314 -0.010490
v 0.001943 0.037558 -0.010046
v 0.003824 0.040774 -0.016041
v 0.003821 0.040514 -0.010847
v 0.003818 0.040422 -0.009736
v 0.003814 0.040567 -0.009982
v 0.003811 0.037635 -0.009485
v 0.005551 0.041697 -0.016011
v 0.005547 0.041419 -0.010665
v 0.005542 0.041181 -0.009212
v 0.005538 0.040978 -0.009158
v 0.005533 0.037761 -0.008573
v 0.007065 0.042939 -0.015970
v 0.007060 0.042636 -0.010421
v 0.007054 0.042201 -0.008507
v 0.007048 0.041530 -0.008048
v 0.007043 0.037930 -0.007346
v 0.008308 0.044453 -0.015920
v 0.008301 0.044119 -0.010123
v 0.008295 0.043445 -0.007647
v 0.008288 0.042203 -0.006696
v 0.008281 0.038136 -0.005851
v 0.009231 0.046179 -0.015863
v 0.009224 0.045812 -0.009784
v 0.009216 0.044863 -0.006667
v 0.009209 0.042971 -0.005153
v 0.009202 0.038372 -0.004145
v 0.009800 0.048052 -0.015801
v 0.009792 0.047648 -0.009416
v 0.009784 0.046403 -0.005603
v 0.009776 0.043805 -0.003479
v 0.009768 0.038627 -0.002294
v 0.009992 0.050001 -0.015737
v 0.009984 0.049558 -0.009032
v 0.009976 0.048004 -0.004496
v 0.009968 0.044671 -0.001738
v 0.009960 0.038893 -0.000370
v 0.009800 0.051949 -0.015673
v 0.009792 0.051468 -0.008649
v 0.009784 0.049605 -0.003390
v 0.009776 0.045538 0.000002
v 0.009768 0.039158 0.001555
v 0.009231 0.053822 -0.015611
v 0.009224 0.053304 -0.008281
v 0.009216 0.051144 -0.002326
v 0.009209 0.046371 0.001676
v 0.009202 0.039413 0.003406
v 0.008308 0.055549 -0.015554
v 0.008301 0.054996 -0.007941
v 0.008295 0.052563 -0.001345
v 0.008288 0.047139 0.003219
v 0.008281 0.039649 0.005112
v 0.007065 0.057062 -0.015504
v 0.007060 0.056480 -0.007644
v 0.007054 0.053807 -0.000485
v 0.007048 0.047813 0.004571
v 0.007043 0.039855 0.006607
v 0.005551 0.058304 -0.015464
v 0.005547 0.057697 -0.007400
v 0.005542 0.054827 0.000220
v 0.005538 0.048365 0.005681
v 0.005533 0.040024 0.007834
v 0.003824 0.059227 -0.015433
v 0.003821 0.058602 -0.007218
v 0.003818 0.055586 0.000744
v 0.003814 0.048775 0.006505
v 0.003811 0.040150 0.008746
v 0.001943 0.040227 0.009307
v 0.001945 0.049028 0.007013
v 0.001946 0.056053 0.001067
v 0.001948 0.059159 -0.007106
v 0.001949 0.059795 -0.015414
vn 0.0980 0.9952 -0.0000
vn 0.2903 0.9569 -0.0000
vn 0.4714 0.8819 -0.0000
vn 0.6344 0.7730 -0.0000
vn 0.7730 0.6344 -0.0000
vn 0.8819 0.4714 -0.0000
vn 0.9569 0.2903 -0.0000
vn 0.9952 0.0980 -0.0000
vn 0.9952 -0.0980 -0.0000
vn 0.9569 -0.2903 -0.0000
vn 0.8819 -0.4714 -0.0000
vn 0.7730 -0.6344 -0.0000
vn 0.6344 -0.7730 -0.0000
vn 0.4714 -0.8819 -0.0000
vn 0.2903 -0.9569 -0.0000
vn 0.0980 -0.9952 -0.0000
vn -0.0980 -0.9952 -0.0000
vn -0.2903 -0.9569 -0.0000
vn -0.4714 -0.8819 -0.0000
vn -0.6344 -0.7730 -0.0000
vn -0.7730 -0.6344 -0.0000
vn -0.8819 -0.4714 -0.0000
vn -0.9569 -0.2903 -0.0000
vn -0.9952 -0.0980 -0.0000
vn -0.9952 0.0980 -0.0000
vn -0.9569 0.2903 -0.0000
vn -0.8819 0.4714 -0.0000
vn -0.7730 0.6344 -0.0000
vn -0.6344 0.7730 -0.0000
vn -0.4714 0.8819 -0.0000
vn -0.2903 0.9569 -0.0000
vn -0.0980 0.9952 -0.0000
vn -0.0000 -1.0000 -0.0000
vn 0.0980 -0.0000 0.9952
vn 0.9569 -0.0000 0.2903
vn -0.9569 -0.0000 0.2903
vn 0.9952 -0.0000 0.0980
vn -0.8819 -0.0000 0.4714
vn 0.9952 -0.0000 -0.0980
vn -0.7730 -0.0000 0.6344
vn 0.9569 -0.0000 -0.2903
vn -0.6344 -0.0000 0.7730
vn 0.8819 -0.0000 -0.4714
vn -0.4714 -0.0000 0.8819
vn -0.0980 -0.0000 -0.9952
vn 0.7730 -0.0000 -0.6344
vn -0.2903 -0.0000 0.9569
vn -0.2903 -0.0000 -0.9569
vn 0.6344 -0.0000 -0.7730
vn -0.0980 -0.0000 0.9952
vn -0.4714 -0.0000 -0.8819
vn 0.4714 -0.0000 -0.8819
vn -0.6344 -0.0000 -0.7730
vn 0.2903 -0.0000 -0.9569
vn 0.2903 -0.0000 0.9569
vn -0.7730 -0.0000 -0.6344
vn 0.0980 -0.0000 -0.9952
vn 0.4714 -0.0000 0.8819
vn -0.8819 -0.0000 -0.4714
vn 0.6344 -0.0000 0.7730
vn -0.9569 -0.0000 -0.2903
vn 0.7730 -0.0000 0.6344
vn -0.9952 -0.0000 -0.0980
vn 0.8819 -0.0000 0.4714
vn -0.9952 -0.0000 0.0980
vn -0.0000 1.0000 -0.0000
vn -0.0978 0.0441 -0.9942
vn -0.2896 0.0423 -0.9562
vn -0.4704 0.0387 -0.8816
vn -0.6334 0.0335 -0.7731
vn -0.7722 0.0271 -0.6348
vn -0.8814 0.0196 -0.4720
vn -0.9567 0.0116 -0.2908
vn -0.9952 0.0032 -0.0983
vn -0.9952 -0.0050 0.0981
vn -0.9567 -0.0127 0.2907
vn -0.8814 -0.0196 0.4720
vn -0.7722 -0.0256 0.6349
vn -0.6333 -0.0304 0.7733
vn -0.4704 -0.0340 0.8818
vn -0.2895 -0.0364 0.9565
vn -0.0977 -0.0376 0.9945
vn 0.0977 -0.0376 0.9945
vn 0.2895 -0.0364 0.9565
vn 0.4704 -0.0340 0.8818
vn 0.6333 -0.0304 0.7733
vn 0.7722 -0.0256 0.6349
vn 0.8814 -0.0196 0.4720
vn 0.9567 -0.0127 0.2907
vn 0.9952 -0.0050 0.0981
vn 0.9952 0.0032 -0.0983
vn 0.9567 0.0116 -0.2908
vn 0.8814 0.0196 -0.4720
vn 0.7722 0.0271 -0.6348
vn 0.6334 0.0335 -0.7731
vn 0.4704 0.0387 -0.8816
vn 0.2896 0.0423 -0.9562
vn 0.0978 0.0441 -0.9942
vn 0.2865 0.2412 -0.9272
vn 0.2818 0.6197 -0.7325
vn 0.2846 0.8963 -0.3401
vn 0.2892 0.9545 -0.0730
vn 0.2902 0.9570 -0.0013
vn 0.4662 0.2216 -0.8565
vn 0.4597 0.5733 -0.6783
vn 0.4635 0.8289 -0.3133
vn 0.4699 0.8802 -0.0669
vn 0.4713 0.8820 -0.0012
vn 0.6289 0.1932 -0.7531
vn 0.6222 0.5048 -0.5984
vn 0.6261 0.7299 -0.2742
vn 0.6328 0.7721 -0.0581
vn 0.6343 0.7731 -0.0011
vn 0.7684 0.1571 -0.6203
vn 0.7629 0.4161 -0.4949
vn 0.7662 0.6023 -0.2243
vn 0.7717 0.6343 -0.0472
vn 0.7729 0.6345 -0.0010
vn 0.8790 0.1152 -0.4627
vn 0.8755 0.3101 -0.3706
vn 0.8775 0.4500 -0.1656
vn 0.8811 0.4717 -0.0346
vn 0.8819 0.4715 -0.0009
vn 0.9557 0.0693 -0.2861
vn 0.9543 0.1908 -0.2302
vn 0.9551 0.2784 -0.1012
vn 0.9566 0.2907 -0.0213
vn 0.9569 0.2903 -0.0009
vn 0.9950 0.0220 -0.0971
vn 0.9949 0.0634 -0.0789
vn 0.9950 0.0941 -0.0344
vn 0.9951 0.0981 -0.0078
vn 0.9952 0.0980 -0.0009
vn 0.9950 -0.0240 0.0965
vn 0.9949 -0.0659 0.0768
vn 0.9949 -0.0959 0.0302
vn 0.9951 -0.0984 0.0052
vn 0.9952 -0.0981 -0.0009
vn 0.9556 -0.0659 0.2871
vn 0.9543 -0.1902 0.2307
vn 0.9548 -0.2840 0.0878
vn 0.9565 -0.2911 0.0168
vn 0.9569 -0.2904 -0.0009
vn 0.8786 -0.1012 0.4668
vn 0.8753 -0.3014 0.3781
vn 0.8762 -0.4634 0.1323
vn 0.8809 -0.4725 0.0268
vn 0.8819 -0.4715 -0.0011
vn 0.7673 -0.1280 0.6283
vn 0.7621 -0.3875 0.5188
vn 0.7625 -0.6277 0.1565
vn 0.7714 -0.6354 0.0348
vn 0.7729 -0.6345 -0.0012
vn 0.6270 -0.1454 0.7654
vn 0.6163 -0.4042 0.6759
vn 0.6183 -0.7710 0.1523
vn 0.6324 -0.7736 0.0407
vn 0.6343 -0.7731 -0.0013
vn 0.4637 -0.1541 0.8725
vn -0.2100 0.9379 0.2761
vn 0.4500 -0.8859 0.1128
vn 0.4694 -0.8819 0.0447
vn 0.4713 -0.8820 -0.0014
vn 0.2844 -0.1567 0.9458
vn -0.2759 0.7700 -0.5753
vn 0.2683 -0.9623 0.0444
vn 0.2888 -0.9562 0.0472
vn 0.2902 -0.9570 -0.0015
vn 0.0958 -0.1567 0.9830
vn -0.0939 0.7565 -0.6472
vn 0.0879 -0.9960 -0.0154
vn 0.0975 -0.9941 0.0483
vn 0.0980 -0.9952 -0.0016
vn -0.0958 -0.1567 0.9830
vn 0.0939 0.7565 -0.6472
vn -0.0879 -0.9960 -0.0154
vn -0.0975 -0.9941 0.0483
vn -0.0980 -0.9952 -0.0016
vn -0.2844 -0.1567 0.9458
vn 0.2759 0.7700 -0.5753
vn -0.2683 -0.9623 0.0444
vn -0.2888 -0.9562 0.0472
vn -0.2902 -0.9570 -0.0015
vn -0.4637 -0.1541 0.8725
vn 0.2100 0.9379 0.2760
vn -0.4500 -0.8859 0.1128
vn -0.4694 -0.8819 0.0447
vn -0.4713 -0.8820 -0.0014
vn -0.6270 -0.1454 0.7653
vn -0.6163 -0.4042 0.6759
vn -0.6183 -0.7710 0.1523
vn -0.6324 -0.7736 0.0407
vn -0.6343 -0.7731 -0.0013
vn -0.7673 -0.1280 0.6283
vn -0.7621 -0.3875 0.5188
vn -0.7625 -0.6277 0.1565
vn -0.7714 -0.6354 0.0348
vn -0.7729 -0.6345 -0.0012
vn -0.8786 -0.1012 0.4668
vn -0.8753 -0.3014 0.3781
vn -0.8762 -0.4634 0.1323
vn -0.8809 -0.4725 0.0268
vn -0.8819 -0.4715 -0.0011
vn -0.9556 -0.0659 0.2871
vn -0.9543 -0.1902 0.2307
vn -0.9548 -0.2840 0.0878
vn -0.9565 -0.2911 0.0168
vn -0.9569 -0.2904 -0.0009
vn -0.9950 -0.0240 0.0965
vn -0.9949 -0.0659 0.0768
vn -0.9949 -0.0959 0.0302
vn -0.9951 -0.0984 0.0052
vn -0.9952 -0.0981 -0.0009
vn -0.9950 0.0220 -0.0971
vn -0.9949 0.0634 -0.0789
vn -0.9950 0.0941 -0.0344
vn -0.9951 0.0981 -0.0078
vn -0.9952 0.0980 -0.0009
vn -0.9557 0.0693 -0.2861
vn -0.9543 0.1908 -0.2302
vn -0.9551 0.2784 -0.1012
vn -0.9566 0.2907 -0.0213
vn -0.9569 0.2903 -0.0009
vn -0.8790 0.1151 -0.4627
vn -0.8755 0.3101 -0.3706
vn -0.8775 0.4500 -0.1656
vn -0.8811 0.4717 -0.0346
vn -0.8819 0.4715 -0.0009
vn -0.7684 0.1571 -0.6203
vn -0.7629 0.4161 -0.4949
vn -0.7662 0.6023 -0.2243
vn -0.7717 0.6343 -0.0472
vn -0.7729 0.6345 -0.0010
vn -0.6289 0.1932 -0.7531
vn -0.6222 0.5048 -0.5984
vn -0.6261 0.7299 -0.2742
vn -0.6328 0.7721 -0.0581
vn -0.6343 0.7731 -0.0011
vn -0.4662 0.2216 -0.8565
vn -0.4597 0.5733 -0.6783
vn -0.4635 0.8289 -0.3133
vn -0.4699 0.8802 -0.0669
vn -0.4713 0.8820 -0.0012
vn -0.2865 0.2412 -0.9272
vn -0.2818 0.6197 -0.7325
vn -0.2846 0.8963 -0.3401
vn -0.2892 0.9545 -0.0730
vn -0.2902 0.9570 -0.0013
vn -0.0966 0.2512 -0.9631
vn -0.0949 0.6432 -0.7598
vn -0.0959 0.9304 -0.3538
vn -0.0976 0.9923 -0.0761
vn -0.0980 0.9952 -0.0013
vn 0.0966 0.2512 -0.9631
vn 0.0949 0.6432 -0.7598
vn 0.0959 0.9304 -0.3538
vn 0.0976 0.9923 -0.0761
vn 0.0980 0.9952 -0.0013
vn 0.2896 0.0423 0.9562
vn 0.4704 0.0387 0.8816
vn 0.6334 0.0335 0.7731
vn 0.7722 0.0271 0.6348
vn 0.8814 0.0196 0.4720
vn 0.9567 0.0116 0.2908
vn 0.9952 0.0032 0.0983
vn 0.9952 -0.0050 -0.0981
vn 0.9567 -0.0127 -0.2907
vn 0.8814 -0.0196 -0.4720
vn 0.7722 -0.0256 -0.6349
vn 0.6333 -0.0304 -0.7733
vn 0.4704 -0.0340 -0.8818
vn 0.2895 -0.0364 -0.9565
vn 0.0977 -0.0376 -0.9945
vn -0.0977 -0.0376 -0.9945
vn -0.2895 -0.0364 -0.9565
vn -0.4704 -0.0340 -0.8818
vn -0.6333 -0.0304 -0.7733
vn -0.7722 -0.0256 -0.6349
vn -0.8814 -0.0196 -0.4720
vn -0.9567 -0.0127 -0.2907
vn -0.9952 -0.0050 -0.0981
vn -0.9952 0.0032 0.0983
vn -0.9567 0.0116 0.2908
vn -0.8814 0.0196 0.4720
vn -0.7722 0.0271 0.6348
vn -0.6334 0.0335 0.7731
vn -0.4704 0.0387 0.8816
vn -0.2896 0.0423 0.9562
vn -0.0978 0.0441 0.9942
vn 0.0978 0.0441 0.9942
vn -0.0966 0.2512 0.9631
vn -0.0949 0.6432 0.7598
vn -0.0959 0.9304 0.3538
vn -0.0976 0.9923 0.0761
vn -0.0980 0.9952 0.0013
vn -0.2865 0.2412 0.9272
vn -0.2818 0.6197 0.7325
vn -0.2846 0.8963 0.3401
vn -0.2892 0.9545 0.0730
vn -0.2902 0.9570 0.0013
vn -0.4662 0.2216 0.8565
vn -0.4597 0.5733 0.6783
vn -0.4635 0.8289 0.3133
vn -0.4699 0.8802 0.0669
vn -0.4713 0.8820 0.0012
vn -0.6289 0.1932 0.7531
vn -0.6222 0.5048 0.5984
vn -0.6261 0.7299 0.2742
vn -0.6328 0.7721 0.0581
vn -0.6343 0.7731 0.0011
vn -0.7684 0.1571 0.6203
vn -0.7629 0.4161 0.4949
vn -0.7662 0.6023 0.2243
vn -0.7717 0.6343 0.0472
vn -0.7729 0.6345 0.0010
vn -0.8790 0.1151 0.4627
vn -0.8755 0.3101 0.3706
vn -0.8775 0.4500 0.1656
vn -0.8811 0.4717 0.0346
vn -0.8819 0.4715 0.0009
vn -0.9557 0.0693 0.2861
vn -0.9543 0.1908 0.2302
vn -0.9551 0.2784 0.1012
vn -0.9566 0.2907 0.0213
vn -0.9569 0.2903 0.0009
vn -0.9950 0.0220 0.0971
vn -0.9949 0.0634 0.0789
vn -0.9950 0.0941 0.0344
vn -0.9951 0.0981 0.0078
vn -0.9952 0.0980 0.0009
vn -0.9950 -0.0240 -0.0965
vn -0.9949 -0.0659 -0.0768
vn -0.9949 -0.0959 -0.0302
vn -0.9951 -0.0984 -0.0052
vn -0.9952 -0.0981 0.0009
vn -0.9556 -0.0659 -0.2871
vn -0.9543 -0.1902 -0.2308
vn -0.9548 -0.2840 -0.0878
vn -0.9565 -0.2911 -0.0168
vn -0.9569 -0.2904 0.0009
vn -0.8786 -0.1012 -0.4668
vn -0.8753 -0.3014 -0.3781
vn -0.8762 -0.4634 -0.1323
vn -0.8809 -0.4725 -0.0268
vn -0.8819 -0.4715 0.0011
vn -0.7673 -0.1280 -0.6283
vn -0.7621 -0.3875 -0.5188
vn -0.7626 -0.6277 -0.1565
vn -0.7714 -0.6354 -0.0348
vn -0.7729 -0.6345 0.0012
vn -0.6270 -0.1454 -0.7654
vn -0.6163 -0.4042 -0.6759
vn -0.6183 -0.7710 -0.1523
vn -0.6323 -0.7736 -0.0407
vn -0.6343 -0.7731 0.0013
vn -0.4637 -0.1541 -0.8725
vn 0.2100 0.9379 -0.2760
vn -0.4500 -0.8859 -0.1128
vn -0.4694 -0.8819 -0.0447
vn -0.4713 -0.8820 0.0014
vn -0.2844 -0.1567 -0.9458
vn 0.2759 0.7700 0.5753
vn -0.2683 -0.9623 -0.0444
vn -0.2888 -0.9562 -0.0472
vn -0.2902 -0.9570 0.0015
vn -0.0958 -0.1567 -0.9830
vn 0.0939 0.7565 0.6472
vn -0.0879 -0.9960 0.0154
vn -0.0975 -0.9941 -0.0483
vn -0.0980 -0.9952 0.0016
vn 0.0958 -0.1567 -0.9830
vn -0.0939 0.7565 0.6472
vn 0.0879 -0.9960 0.0154
vn 0.0975 -0.9941 -0.0483
vn 0.0980 -0.9952 0.0016
vn 0.2844 -0.1567 -0.9458
vn -0.2759 0.7700 0.5753
vn 0.2683 -0.9623 -0.0444
vn 0.2888 -0.9562 -0.0472
vn 0.2902 -0.9570 0.0015
vn 0.4637 -0.1541 -0.8725
vn -0.2100 0.9379 -0.2760
vn 0.4500 -0.8859 -0.1128
vn 0.4694 -0.8819 -0.0447
vn 0.4713 -0.8820 0.0014
vn 0.6270 -0.1454 -0.7654
vn 0.6163 -0.4042 -0.6759
vn 0.6183 -0.7710 -0.1523
vn 0.6323 -0.7736 -0.0407
vn 0.6343 -0.7731 0.0013
vn 0.7673 -0.1280 -0.6283
vn 0.7621 -0.3875 -0.5188
vn 0.7626 -0.6277 -0.1565
vn 0.7714 -0.6354 -0.0348
vn 0.7729 -0.6345 0.0012
vn 0.8786 -0.1012 -0.4668
vn 0.8753 -0.3014 -0.3781
vn 0.8762 -0.4634 -0.1323
vn 0.8809 -0.4725 -0.0268
vn 0.8819 -0.4715 0.0011
vn 0.9556 -0.0659 -0.2871
vn 0.9543 -0.1902 -0.2307
vn 0.9548 -0.2840 -0.0878
vn 0.9565 -0.2911 -0.0168
vn 0.9569 -0.2904 0.0009
vn 0.9950 -0.0240 -0.0965
vn 0.9949 -0.0659 -0.0768
vn 0.9949 -0.0959 -0.0302
vn 0.9951 -0.0984 -0.0052
vn 0.9952 -0.0981 0.0009
vn 0.9950 0.0220 0.0971
vn 0.9949 0.0634 0.0789
vn 0.9950 0.0941 0.0344
vn 0.9951 0.0981 0.0078
vn 0.9952 0.0980 0.0009
vn 0.9557 0.0693 0.2861
vn 0.9543 0.1908 0.2302
vn 0.9551 0.2784 0.1012
vn 0.9566 0.2907 0.0213
vn 0.9569 0.2903 0.0009
vn 0.8790 0.1151 0.4627
vn 0.8755 0.3101 0.3706
vn 0.8775 0.4500 0.1656
vn 0.8811 0.4717 0.0346
vn 0.8819 0.4715 0.0009
vn 0.7684 0.1571 0.6203
vn 0.7629 0.4161 0.4949
vn 0.7662 0.6023 0.2243
vn 0.7717 0.6343 0.0472
vn 0.7729 0.6345 0.0010
vn 0.6289 0.1931 0.7531
vn 0.6222 0.5048 0.5984
vn 0.6261 0.7299 0.2742
vn 0.6328 0.7721 0.0581
vn 0.6343 0.7731 0.0011
vn 0.4662 0.2216 0.8565
vn 0.4597 0.5733 0.6783
vn 0.4635 0.8289 0.3133
vn 0.4699 0.8802 0.0669
vn 0.4713 0.8820 0.0012
vn 0.2865 0.2412 0.9272
vn 0.2818 0.6197 0.7325
vn 0.2846 0.8963 0.3401
vn 0.2892 0.9545 0.0730
vn 0.2902 0.9570 0.0013
vn 0.0966 0.2512 0.9631
vn 0.0949 0.6432 0.7598
vn 0.0959 0.9304 0.3538
vn 0.0976 0.9923 0.0761
vn 0.0980 0.9952 0.0013
vt 0.509672 0.559527
vt 0.509672 0.375645
vt 0.513259 0.375645
vt 0.513259 0.559527
vt 0.516709 0.375645
vt 0.516709 0.559527
vt 0.519888 0.375645
vt 0.519888 0.559527
vt 0.522674 0.375645
vt 0.522674 0.559527
vt 0.323556 0.569981
vt 0.323556 0.386342
vt 0.326342 0.386225
vt 0.326342 0.569863
vt 0.329520 0.386137
vt 0.329520 0.569776
vt 0.332969 0.386083
vt 0.332969 0.569722
vt 0.336557 0.386065
vt 0.336557 0.569703
vt 0.340144 0.386083
vt 0.340144 0.569722
vt 0.343594 0.386137
vt 0.343594 0.569775
vt 0.346774 0.386224
vt 0.346774 0.569863
vt 0.349561 0.386342
vt 0.349561 0.569981
vt 0.522674 0.541722
vt 0.522674 0.357840
vt 0.525461 0.357840
vt 0.525461 0.541722
vt 0.528640 0.357840
vt 0.528640 0.541722
vt 0.532089 0.357840
vt 0.532089 0.541722
vt 0.535677 0.357840
vt 0.535677 0.541722
vt 0.539264 0.357840
vt 0.539264 0.541722
vt 0.542714 0.357840
vt 0.542714 0.541722
vt 0.545893 0.357840
vt 0.545893 0.541722
vt 0.548679 0.357840
vt 0.548679 0.541722
vt 0.470665 0.570032
vt 0.470665 0.388397
vt 0.473450 0.388754
vt 0.473450 0.570389
vt 0.476628 0.389019
vt 0.476628 0.570654
vt 0.480077 0.389182
vt 0.480077 0.570817
vt 0.483664 0.389237
vt 0.483664 0.570873
vt 0.487252 0.389183
vt 0.487252 0.570818
vt 0.490702 0.389020
vt 0.490702 0.570655
vt 0.493882 0.388755
vt 0.493882 0.570391
vt 0.496669 0.388399
vt 0.496669 0.570034
vt 0.496669 0.559527
vt 0.496669 0.375645
vt 0.499456 0.375645
vt 0.499456 0.559527
vt 0.502635 0.375645
vt 0.502635 0.559527
vt 0.506085 0.375645
vt 0.506085 0.559527
vt 0.548679 0.514114
vt 0.548679 0.506904
vt 0.550086 0.499833
vt 0.552845 0.493173
vt 0.556850 0.487178
vt 0.561948 0.482080
vt 0.567942 0.478075
vt 0.574603 0.475316
vt 0.581674 0.473910
vt 0.588883 0.473910
vt 0.595954 0.475316
vt 0.602615 0.478075
vt 0.608609 0.482080
vt 0.613707 0.487178
vt 0.617713 0.493173
vt 0.620471 0.499833
vt 0.621878 0.506904
vt 0.621878 0.514114
vt 0.620472 0.521185
vt 0.617713 0.527845
vt 0.613707 0.533840
vt 0.608609 0.538938
vt 0.602615 0.542943
vt 0.595954 0.545702
vt 0.588883 0.547108
vt 0.581674 0.547108
vt 0.574603 0.545702
vt 0.567942 0.542943
vt 0.561948 0.538938
vt 0.556850 0.533840
vt 0.552845 0.527845
vt 0.550086 0.521185
vt 0.535162 0.572064
vt 0.538750 0.572053
vt 0.538863 0.608827
vt 0.535276 0.608838
vt 0.585460 0.631812
vt 0.585459 0.638594
vt 0.567071 0.638595
vt 0.567072 0.631812
vt 0.504281 0.633216
vt 0.504281 0.626075
vt 0.522669 0.626074
vt 0.522669 0.633215
vt 0.585459 0.645723
vt 0.567071 0.645723
vt 0.504282 0.619265
vt 0.522670 0.619264
vt 0.585459 0.652925
vt 0.567071 0.652925
vt 0.504284 0.613047
vt 0.522672 0.613047
vt 0.585460 0.659922
vt 0.567072 0.659923
vt 0.504286 0.607661
vt 0.522674 0.607660
vt 0.585461 0.666447
vt 0.567073 0.666447
vt 0.603850 0.620307
vt 0.603897 0.626301
vt 0.585510 0.626301
vt 0.585463 0.620307
vt 0.640423 0.603224
vt 0.640423 0.596015
vt 0.658809 0.596015
vt 0.658809 0.603224
vt 0.585463 0.672248
vt 0.567074 0.672248
vt 0.603930 0.632961
vt 0.585543 0.632961
vt 0.640439 0.588944
vt 0.658826 0.588944
vt 0.640580 0.628046
vt 0.640520 0.622949
vt 0.658907 0.622949
vt 0.658967 0.628046
vt 0.603947 0.640032
vt 0.585560 0.640032
vt 0.640472 0.582282
vt 0.658859 0.582282
vt 0.640472 0.616955
vt 0.658859 0.616955
vt 0.603947 0.647241
vt 0.585560 0.647241
vt 0.640520 0.576287
vt 0.658907 0.576287
vt 0.640439 0.610295
vt 0.658826 0.610295
vt 0.603930 0.654312
vt 0.585543 0.654312
vt 0.640580 0.571189
vt 0.658967 0.571189
vt 0.603897 0.660974
vt 0.585510 0.660973
vt 0.504286 0.659629
vt 0.504284 0.653878
vt 0.522672 0.653878
vt 0.522674 0.659629
vt 0.603850 0.666969
vt 0.585463 0.666969
vt 0.504282 0.647390
vt 0.522670 0.647389
vt 0.585463 0.620307
vt 0.585461 0.625637
vt 0.567073 0.625638
vt 0.567074 0.620307
vt 0.504281 0.640413
vt 0.522669 0.640412
vt 0.599424 0.448919
vt 0.601417 0.445936
vt 0.617713 0.454646
vt 0.613707 0.460641
vt 0.596888 0.451456
vt 0.608609 0.465739
vt 0.593905 0.453449
vt 0.602615 0.469744
vt 0.590591 0.454821
vt 0.595954 0.472503
vt 0.587072 0.455521
vt 0.583485 0.455521
vt 0.579967 0.454821
vt 0.574603 0.472503
vt 0.576652 0.453449
vt 0.567942 0.469744
vt 0.573670 0.451456
vt 0.561948 0.465739
vt 0.571133 0.448919
vt 0.556850 0.460641
vt 0.569140 0.445936
vt 0.552845 0.454647
vt 0.567767 0.442622
vt 0.550086 0.447986
vt 0.567067 0.439104
vt 0.548679 0.440915
vt 0.567067 0.435517
vt 0.548679 0.433706
vt 0.567767 0.431998
vt 0.550086 0.426635
vt 0.569140 0.428684
vt 0.552845 0.419974
vt 0.571133 0.425701
vt 0.556850 0.413979
vt 0.573670 0.423165
vt 0.561948 0.408882
vt 0.576652 0.421172
vt 0.567942 0.404876
vt 0.579967 0.419799
vt 0.574603 0.402117
vt 0.583485 0.419099
vt 0.581674 0.400711
vt 0.587072 0.419099
vt 0.588883 0.400711
vt 0.590591 0.419799
vt 0.595954 0.402117
vt 0.593905 0.421172
vt 0.602615 0.404876
vt 0.596888 0.423165
vt 0.608609 0.408882
vt 0.599424 0.425701
vt 0.613707 0.413979
vt 0.601417 0.428684
vt 0.617713 0.419974
vt 0.602790 0.431998
vt 0.620471 0.426634
vt 0.603490 0.435517
vt 0.621878 0.433705
vt 0.603490 0.439104
vt 0.621878 0.440915
vt 0.602790 0.442622
vt 0.620471 0.447986
vt 0.627398 0.485785
vt 0.624415 0.485742
vt 0.624652 0.448969
vt 0.627635 0.449012
vt 0.644650 0.485896
vt 0.641336 0.485891
vt 0.641573 0.449118
vt 0.644887 0.449123
vt 0.542268 0.572050
vt 0.542382 0.608824
vt 0.621878 0.485695
vt 0.622116 0.448922
vt 0.637817 0.485877
vt 0.638055 0.449104
vt 0.545583 0.572056
vt 0.545696 0.608830
vt 0.410113 0.625824
vt 0.410112 0.622962
vt 0.446889 0.622965
vt 0.446889 0.625827
vt 0.548566 0.572071
vt 0.548679 0.608845
vt 0.410112 0.619734
vt 0.446888 0.619736
vt 0.410111 0.602970
vt 0.410111 0.605622
vt 0.373334 0.605623
vt 0.373335 0.602971
vt 0.410111 0.616262
vt 0.446888 0.616265
vt 0.410110 0.608695
vt 0.373334 0.608695
vt 0.410112 0.612681
vt 0.446888 0.612684
vt 0.410110 0.612069
vt 0.373333 0.612070
vt 0.410112 0.609128
vt 0.446889 0.609131
vt 0.410110 0.615617
vt 0.373333 0.615617
vt 0.410113 0.605739
vt 0.446889 0.605742
vt 0.410110 0.619200
vt 0.373333 0.619200
vt 0.410114 0.602645
vt 0.446891 0.602648
vt 0.410110 0.622682
vt 0.373334 0.622682
vt 0.410116 0.599965
vt 0.446892 0.599968
vt 0.410111 0.625928
vt 0.373334 0.625929
vt 0.525348 0.572143
vt 0.528330 0.572110
vt 0.528444 0.608884
vt 0.525461 0.608916
vt 0.634230 0.485853
vt 0.634468 0.449080
vt 0.410111 0.628815
vt 0.373335 0.628815
vt 0.531644 0.572083
vt 0.531758 0.608857
vt 0.630712 0.485822
vt 0.630949 0.449049
vt 0.650168 0.485878
vt 0.647632 0.485892
vt 0.647870 0.449119
vt 0.650406 0.449105
vt 0.621878 0.367716
vt 0.620472 0.374787
vt 0.617713 0.381448
vt 0.613707 0.387442
vt 0.608609 0.392540
vt 0.602615 0.396545
vt 0.595954 0.399304
vt 0.588883 0.400711
vt 0.581674 0.400711
vt 0.574603 0.399304
vt 0.567942 0.396545
vt 0.561948 0.392540
vt 0.556850 0.387442
vt 0.552845 0.381448
vt 0.550086 0.374787
vt 0.548679 0.367716
vt 0.548679 0.360507
vt 0.550086 0.353436
vt 0.552845 0.346775
vt 0.556850 0.340781
vt 0.561948 0.335683
vt 0.567942 0.331677
vt 0.574603 0.328919
vt 0.581674 0.327512
vt 0.588883 0.327512
vt 0.595954 0.328919
vt 0.602615 0.331677
vt 0.608609 0.335683
vt 0.613707 0.340781
vt 0.617713 0.346775
vt 0.620472 0.353436
vt 0.621878 0.360507
vt 0.632571 0.486017
vt 0.636158 0.486078
vt 0.635525 0.522847
vt 0.631938 0.522785
vt 0.567068 0.631812
vt 0.567068 0.638594
vt 0.548679 0.638595
vt 0.548680 0.631812
vt 0.645971 0.511452
vt 0.645972 0.504311
vt 0.664360 0.504310
vt 0.664360 0.511451
vt 0.567068 0.645723
vt 0.548679 0.645723
vt 0.645973 0.497501
vt 0.664361 0.497500
vt 0.567068 0.652925
vt 0.548679 0.652925
vt 0.645974 0.491283
vt 0.664363 0.491282
vt 0.567068 0.659922
vt 0.548680 0.659923
vt 0.645977 0.485897
vt 0.664365 0.485896
vt 0.567069 0.666447
vt 0.548681 0.666447
vt 0.428498 0.625827
vt 0.428546 0.631820
vt 0.410159 0.631820
vt 0.410111 0.625827
vt 0.621878 0.603224
vt 0.621878 0.596015
vt 0.640265 0.596015
vt 0.640265 0.603224
vt 0.567071 0.672248
vt 0.548683 0.672248
vt 0.428579 0.638481
vt 0.410192 0.638481
vt 0.621895 0.588943
vt 0.640282 0.588944
vt 0.622036 0.628046
vt 0.621975 0.622949
vt 0.640362 0.622949
vt 0.640423 0.628046
vt 0.428595 0.645551
vt 0.410208 0.645551
vt 0.621927 0.582282
vt 0.640314 0.582282
vt 0.621927 0.616955
vt 0.640314 0.616955
vt 0.428595 0.652761
vt 0.410208 0.652761
vt 0.621975 0.576287
vt 0.640362 0.576287
vt 0.621895 0.610295
vt 0.640282 0.610295
vt 0.428579 0.659832
vt 0.410192 0.659832
vt 0.622036 0.571189
vt 0.640423 0.571189
vt 0.428546 0.666493
vt 0.410159 0.666493
vt 0.645977 0.537865
vt 0.645974 0.532114
vt 0.664363 0.532114
vt 0.664365 0.537865
vt 0.428498 0.672488
vt 0.410111 0.672488
vt 0.645973 0.525626
vt 0.664361 0.525625
vt 0.567071 0.620307
vt 0.567069 0.625637
vt 0.548681 0.625638
vt 0.548683 0.620307
vt 0.645972 0.518649
vt 0.664360 0.518648
vt 0.602790 0.589020
vt 0.603490 0.585501
vt 0.621878 0.587312
vt 0.620471 0.594383
vt 0.601417 0.592334
vt 0.617713 0.601044
vt 0.599424 0.595317
vt 0.613707 0.607038
vt 0.596888 0.597853
vt 0.608609 0.612136
vt 0.593905 0.599846
vt 0.602615 0.616142
vt 0.590591 0.601219
vt 0.595954 0.618901
vt 0.587072 0.601919
vt 0.588883 0.620307
vt 0.583485 0.601919
vt 0.581674 0.620307
vt 0.579967 0.601219
vt 0.574603 0.618901
vt 0.576652 0.599846
vt 0.567942 0.616142
vt 0.573670 0.597853
vt 0.561948 0.612136
vt 0.571133 0.595317
vt 0.556850 0.607038
vt 0.569140 0.592334
vt 0.552845 0.601044
vt 0.567767 0.589020
vt 0.550086 0.594383
vt 0.567068 0.585501
vt 0.548679 0.587312
vt 0.567068 0.581914
vt 0.548679 0.580103
vt 0.567767 0.578396
vt 0.550086 0.573032
vt 0.569140 0.575081
vt 0.552845 0.566371
vt 0.571133 0.572099
vt 0.556850 0.560377
vt 0.573670 0.569562
vt 0.561948 0.555279
vt 0.576652 0.567569
vt 0.567942 0.551274
vt 0.579967 0.566196
vt 0.574603 0.548515
vt 0.583485 0.565497
vt 0.587072 0.565497
vt 0.590591 0.566196
vt 0.595954 0.548515
vt 0.593905 0.567569
vt 0.602615 0.551274
vt 0.596888 0.569562
vt 0.608609 0.555279
vt 0.599424 0.572099
vt 0.613707 0.560377
vt 0.601417 0.575082
vt 0.617713 0.566371
vt 0.602790 0.578396
vt 0.620472 0.573032
vt 0.603490 0.581914
vt 0.621878 0.580103
vt 0.627534 0.386733
vt 0.624551 0.386720
vt 0.624422 0.349946
vt 0.627405 0.349960
vt 0.644786 0.386673
vt 0.641472 0.386701
vt 0.641343 0.349927
vt 0.644657 0.349899
vt 0.639675 0.486147
vt 0.639043 0.522916
vt 0.622014 0.386699
vt 0.621885 0.349925
vt 0.637954 0.386721
vt 0.637825 0.349948
vt 0.642989 0.486221
vt 0.642356 0.522989
vt 0.410113 0.353371
vt 0.410112 0.350509
vt 0.446889 0.350512
vt 0.446889 0.353373
vt 0.645971 0.486296
vt 0.645338 0.523064
vt 0.410112 0.347281
vt 0.446888 0.347283
vt 0.410111 0.327512
vt 0.410111 0.330164
vt 0.373334 0.330165
vt 0.373335 0.327513
vt 0.410111 0.343809
vt 0.446888 0.343812
vt 0.410110 0.333237
vt 0.373334 0.333237
vt 0.410112 0.340228
vt 0.446888 0.340231
vt 0.410110 0.336611
vt 0.373333 0.336612
vt 0.410112 0.336675
vt 0.446889 0.336677
vt 0.410110 0.340159
vt 0.373333 0.340159
vt 0.410113 0.333286
vt 0.446889 0.333289
vt 0.410110 0.343742
vt 0.373333 0.343743
vt 0.410114 0.330192
vt 0.446891 0.330195
vt 0.410110 0.347224
vt 0.373334 0.347224
vt 0.410115 0.327512
vt 0.446892 0.327515
vt 0.410111 0.350470
vt 0.373334 0.350471
vt 0.622757 0.485896
vt 0.625739 0.485924
vt 0.625106 0.522692
vt 0.622124 0.522665
vt 0.634367 0.386734
vt 0.634238 0.349960
vt 0.410111 0.353357
vt 0.373335 0.353357
vt 0.629053 0.485965
vt 0.628420 0.522733
vt 0.630848 0.386738
vt 0.630719 0.349964
vt 0.650305 0.386600
vt 0.647768 0.386639
vt 0.647639 0.349865
vt 0.650175 0.349826
vt 0.634504 0.430266
vt 0.638095 0.430241
vt 0.630983 0.430377
vt 0.627666 0.430571
vt 0.624681 0.430839
vt 0.622143 0.431172
vt 0.464198 0.622238
vt 0.464631 0.625072
vt 0.463728 0.619038
vt 0.463240 0.615597
vt 0.462752 0.612046
vt 0.462283 0.608522
vt 0.461851 0.605160
vt 0.461473 0.602089
vt 0.461163 0.599428
vt 0.528429 0.622916
vt 0.525443 0.623180
vt 0.531746 0.622747
vt 0.535267 0.622680
vt 0.538857 0.622717
vt 0.542378 0.622857
vt 0.545695 0.623094
vt 0.548679 0.623419
vt 0.358373 0.605031
vt 0.358752 0.602402
vt 0.357939 0.608076
vt 0.357470 0.611421
vt 0.356981 0.614938
vt 0.356493 0.618491
vt 0.356024 0.621943
vt 0.355592 0.625163
vt 0.355214 0.628025
vt 0.647917 0.430678
vt 0.650456 0.430976
vt 0.644933 0.430451
vt 0.641616 0.430303
vt 0.641309 0.414069
vt 0.644637 0.414540
vt 0.640323 0.401017
vt 0.643684 0.401886
vt 0.516692 0.606866
vt 0.513251 0.607460
vt 0.513254 0.592431
vt 0.516697 0.592225
vt 0.513256 0.577154
vt 0.516703 0.577119
vt 0.647636 0.415292
vt 0.646736 0.403285
vt 0.519863 0.605902
vt 0.519871 0.591891
vt 0.519880 0.577063
vt 0.650194 0.416297
vt 0.340581 0.624287
vt 0.339566 0.626468
vt 0.327683 0.616439
vt 0.329559 0.615001
vt 0.522643 0.604605
vt 0.522653 0.591442
vt 0.522664 0.576988
vt 0.341818 0.621686
vt 0.331845 0.613305
vt 0.324644 0.601855
vt 0.327370 0.601191
vt 0.323572 0.587419
vt 0.326354 0.587210
vt 0.343230 0.618766
vt 0.334453 0.611417
vt 0.330482 0.600480
vt 0.329528 0.587018
vt 0.344762 0.615639
vt 0.337283 0.609409
vt 0.333858 0.599749
vt 0.332973 0.586851
vt 0.346355 0.612424
vt 0.340227 0.607359
vt 0.337370 0.599028
vt 0.336555 0.586714
vt 0.347949 0.609245
vt 0.343171 0.605345
vt 0.340881 0.598342
vt 0.340138 0.586615
vt 0.349482 0.606225
vt 0.346002 0.603445
vt 0.344258 0.597719
vt 0.343583 0.586555
vt 0.350895 0.603479
vt 0.348612 0.601731
vt 0.347371 0.597183
vt 0.346758 0.586538
vt 0.352133 0.601113
vt 0.350899 0.600270
vt 0.350099 0.596754
vt 0.349542 0.586564
vt 0.548583 0.630023
vt 0.545615 0.628996
vt 0.548514 0.631247
vt 0.545615 0.629368
vt 0.525486 0.570753
vt 0.522706 0.572050
vt 0.522695 0.568530
vt 0.525477 0.568081
vt 0.522685 0.558327
vt 0.525469 0.558252
vt 0.542311 0.628237
vt 0.498186 0.624866
vt 0.496669 0.628035
vt 0.496770 0.628043
vt 0.497734 0.624871
vt 0.528657 0.569790
vt 0.528651 0.567748
vt 0.528646 0.558196
vt 0.538796 0.627776
vt 0.499119 0.621427
vt 0.498327 0.621430
vt 0.532098 0.569196
vt 0.532095 0.567542
vt 0.532092 0.558162
vt 0.535206 0.627631
vt 0.499435 0.617851
vt 0.498527 0.617851
vt 0.535677 0.568996
vt 0.535677 0.567473
vt 0.535677 0.558150
vt 0.531679 0.627806
vt 0.499119 0.614276
vt 0.498327 0.614273
vt 0.539255 0.569196
vt 0.539258 0.567542
vt 0.539261 0.558162
vt 0.528350 0.628296
vt 0.498186 0.610837
vt 0.497734 0.610832
vt 0.542697 0.569790
vt 0.542702 0.567748
vt 0.542708 0.558196
vt 0.525348 0.629082
vt 0.496669 0.607669
vt 0.496770 0.607660
vt 0.545868 0.570753
vt 0.545876 0.568081
vt 0.545885 0.558252
vt 0.467078 0.598368
vt 0.468092 0.600816
vt 0.467451 0.598270
vt 0.469326 0.599985
vt 0.548648 0.572050
vt 0.548658 0.568530
vt 0.548669 0.558327
vt 0.469329 0.603628
vt 0.471612 0.601902
vt 0.470126 0.596510
vt 0.472853 0.597406
vt 0.470683 0.586433
vt 0.473465 0.586880
vt 0.470740 0.606694
vt 0.474220 0.603947
vt 0.475964 0.598288
vt 0.476639 0.587248
vt 0.472272 0.609897
vt 0.477050 0.606043
vt 0.479340 0.599120
vt 0.480083 0.587523
vt 0.473866 0.613114
vt 0.479994 0.608108
vt 0.482851 0.599871
vt 0.483666 0.587695
vt 0.475460 0.616221
vt 0.482938 0.610063
vt 0.486363 0.600512
vt 0.487248 0.587757
vt 0.476992 0.619099
vt 0.485769 0.611833
vt 0.489740 0.601019
vt 0.490694 0.587706
vt 0.478406 0.621637
vt 0.488379 0.613351
vt 0.492853 0.601371
vt 0.493869 0.587545
vt 0.621878 0.417356
vt 0.624398 0.416161
vt 0.479645 0.623738
vt 0.490667 0.614556
vt 0.495582 0.601556
vt 0.496653 0.587280
vt 0.627369 0.415185
vt 0.623547 0.405024
vt 0.626453 0.403178
vt 0.499481 0.605902
vt 0.496701 0.604605
vt 0.496690 0.591442
vt 0.499472 0.591891
vt 0.496680 0.576988
vt 0.499464 0.577063
vt 0.630676 0.414466
vt 0.629712 0.401813
vt 0.502652 0.606866
vt 0.502646 0.592225
vt 0.502641 0.577119
vt 0.634192 0.414031
vt 0.633200 0.400979
vt 0.506093 0.607460
vt 0.506090 0.592431
vt 0.506087 0.577154
vt 0.637783 0.413897
vt 0.636783 0.400711
vt 0.509672 0.607660
vt 0.509672 0.592500
vt 0.509672 0.577165
vt 0.638808 0.541586
vt 0.635286 0.541660
vt 0.642127 0.541428
vt 0.645114 0.541192
vt 0.355592 0.330930
vt 0.355214 0.328302
vt 0.356024 0.333976
vt 0.356493 0.337321
vt 0.356981 0.340837
vt 0.357470 0.344390
vt 0.357939 0.347843
vt 0.358373 0.351062
vt 0.358752 0.353925
vt 0.647651 0.335601
vt 0.650191 0.335251
vt 0.644666 0.335866
vt 0.641349 0.336037
vt 0.637828 0.336105
vt 0.634238 0.336070
vt 0.630717 0.335932
vt 0.627400 0.335696
vt 0.624416 0.335372
vt 0.621878 0.334972
vt 0.462283 0.351127
vt 0.461851 0.353962
vt 0.462752 0.347928
vt 0.463240 0.344487
vt 0.463728 0.340936
vt 0.464198 0.337412
vt 0.464631 0.334050
vt 0.465012 0.330979
vt 0.465324 0.328318
vt 0.624860 0.541363
vt 0.621878 0.541104
vt 0.628175 0.541546
vt 0.631696 0.541646
vt 0.631832 0.557993
vt 0.628307 0.557783
vt 0.632689 0.571189
vt 0.629153 0.570844
vt 0.506093 0.327712
vt 0.509672 0.327512
vt 0.509672 0.342672
vt 0.506090 0.342742
vt 0.509672 0.358007
vt 0.506087 0.358019
vt 0.624985 0.557276
vt 0.625802 0.569939
vt 0.502652 0.328306
vt 0.502646 0.342947
vt 0.502641 0.358053
vt 0.621994 0.556491
vt 0.622765 0.568507
vt 0.499481 0.329270
vt 0.499472 0.343281
vt 0.499464 0.358109
vt 0.480662 0.332231
vt 0.479645 0.334680
vt 0.492545 0.342152
vt 0.490667 0.343866
vt 0.496701 0.330567
vt 0.496690 0.343730
vt 0.496680 0.358184
vt 0.478406 0.337491
vt 0.488379 0.345783
vt 0.495582 0.356871
vt 0.492853 0.357767
vt 0.496653 0.371150
vt 0.493869 0.371597
vt 0.476992 0.340557
vt 0.485769 0.347828
vt 0.489740 0.358648
vt 0.490694 0.371964
vt 0.475460 0.343759
vt 0.482938 0.349923
vt 0.486363 0.359479
vt 0.487248 0.372239
vt 0.473866 0.346976
vt 0.479994 0.351988
vt 0.482851 0.360230
vt 0.483666 0.372410
vt 0.472272 0.350083
vt 0.477050 0.353943
vt 0.479340 0.360871
vt 0.480083 0.372472
vt 0.470740 0.352961
vt 0.474220 0.355712
vt 0.475964 0.361377
vt 0.476639 0.372421
vt 0.469329 0.355499
vt 0.471612 0.357229
vt 0.472853 0.361729
vt 0.473465 0.372259
vt 0.621992 0.327512
vt 0.624509 0.328768
vt 0.468092 0.357599
vt 0.469326 0.358435
vt 0.470126 0.361913
vt 0.470683 0.371993
vt 0.627477 0.329794
vt 0.624577 0.327544
vt 0.627477 0.329422
vt 0.545868 0.328809
vt 0.548648 0.327512
vt 0.548658 0.331032
vt 0.545876 0.331481
vt 0.548669 0.341235
vt 0.545885 0.341310
vt 0.630782 0.330551
vt 0.500951 0.624866
vt 0.499435 0.628034
vt 0.499535 0.628043
vt 0.500499 0.624871
vt 0.542697 0.329773
vt 0.542702 0.331815
vt 0.542708 0.341366
vt 0.634297 0.331011
vt 0.501885 0.621427
vt 0.501092 0.621430
vt 0.539255 0.330366
vt 0.539258 0.332020
vt 0.539261 0.341401
vt 0.637887 0.331155
vt 0.502200 0.617851
vt 0.501293 0.617851
vt 0.535677 0.330567
vt 0.535677 0.332090
vt 0.535677 0.341412
vt 0.641414 0.330978
vt 0.501885 0.614276
vt 0.501092 0.614273
vt 0.532098 0.330366
vt 0.532095 0.332020
vt 0.532092 0.341401
vt 0.644742 0.330486
vt 0.500951 0.610837
vt 0.500499 0.610832
vt 0.528657 0.329773
vt 0.528651 0.331815
vt 0.528646 0.341366
vt 0.647744 0.329699
vt 0.499435 0.607668
vt 0.499535 0.607660
vt 0.525486 0.328809
vt 0.525477 0.331481
vt 0.525469 0.341310
vt 0.650305 0.328647
vt 0.352133 0.355214
vt 0.353150 0.357394
vt 0.352777 0.357494
vt 0.350899 0.356056
vt 0.522706 0.327512
vt 0.522695 0.331032
vt 0.522685 0.341235
vt 0.350895 0.352613
vt 0.348612 0.354360
vt 0.350099 0.359570
vt 0.347371 0.358906
vt 0.349542 0.369759
vt 0.346758 0.369550
vt 0.349482 0.349693
vt 0.346002 0.352472
vt 0.344258 0.358196
vt 0.343583 0.369359
vt 0.347949 0.346565
vt 0.343171 0.350464
vt 0.340881 0.357465
vt 0.340138 0.369191
vt 0.346355 0.343350
vt 0.340227 0.348414
vt 0.337370 0.356744
vt 0.336555 0.369055
vt 0.344762 0.340172
vt 0.337283 0.346400
vt 0.333858 0.356058
vt 0.332973 0.368956
vt 0.343230 0.337152
vt 0.334453 0.344500
vt 0.330482 0.355436
vt 0.329528 0.368896
vt 0.341818 0.334406
vt 0.331845 0.342786
vt 0.327370 0.354900
vt 0.326354 0.368879
vt 0.340581 0.332040
vt 0.329559 0.341325
vt 0.324644 0.354471
vt 0.323572 0.368905
vt 0.645240 0.555873
vt 0.642259 0.556816
vt 0.645971 0.567018
vt 0.643046 0.568833
vt 0.519863 0.329270
vt 0.522643 0.330567
vt 0.522653 0.343730
vt 0.519871 0.343281
vt 0.522664 0.358184
vt 0.519880 0.358109
vt 0.638944 0.557500
vt 0.639772 0.570163
vt 0.516692 0.328306
vt 0.516697 0.342947
vt 0.516703 0.358053
vt 0.635423 0.557897
vt 0.636275 0.570959
vt 0.513251 0.327712
vt 0.513254 0.342742
vt 0.513256 0.358019
s 0
f 1/1/1 2/2/1 4/3/1 3/4/1
f 3/4/2 4/3/2 6/5/2 5/6/2
f 5/6/3 6/5/3 8/7/3 7/8/3
f 7/8/4 8/7/4 10/9/4 9/10/4
f 9/11/5 10/12/5 12/13/5 11/14/5
f 11/14/6 12/13/6 14/15/6 13/16/6
f 13/16/7 14/15/7 16/17/7 15/18/7
f 15/18/8 16/17/8 18/19/8 17/20/8
f 17/20/9 18/19/9 20/21/9 19/22/9
f 19/22/10 20/21/10 22/23/10 21/24/10
f 21/24/11 22/23/11 24/25/11 23/26/11
f 23/26/12 24/25/12 26/27/12 25/28/12
f 25/29/13 26/30/13 28/31/13 27/32/13
f 27/32/14 28/31/14 30/33/14 29/34/14
f 29/34/15 30/33/15 32/35/15 31/36/15
f 31/36/16 32/35/16 34/37/16 33/38/16
f 33/38/17 34/37/17 36/39/17 35/40/17
f 35/40/18 36/39/18 38/41/18 37/42/18
f 37/42/19 38/41/19 40/43/19 39/44/19
f 39/44/20 40/43/20 42/45/20 41/46/20
f 41/47/21 42/48/21 44/49/21 43/50/21
f 43/50/22 44/49/22 46/51/22 45/52/22
f 45/52/23 46/51/23 48/53/23 47/54/23
f 47/54/24 48/53/24 50/55/24 49/56/24
f 49/56/25 50/55/25 52/57/25 51/58/25
f 51/58/26 52/57/26 54/59/26 53/60/26
f 53/60/27 54/59/27 56/61/27 55/62/27
f 55/62/28 56/61/28 58/63/28 57/64/28
f 57/65/29 58/66/29 60/67/29 59/68/29
f 59/68/30 60/67/30 62/69/30 61/70/30
f 61/70/31 62/69/31 64/71/31 63/72/31
f 63/72/32 64/71/32 2/2/32 1/1/32
f 65/73/33 96/74/33 95/75/33 94/76/33 93/77/33 92/78/33 91/79/33 90/80/33 89/81/33 88/82/33 87/83/33 86/84/33 85/85/33 84/86/33 83/87/33 82/88/33 81/89/33 80/90/33 79/91/33 78/92/33 77/93/33 76/94/33 75/95/33 74/96/33 73/97/33 72/98/33 71/99/33 70/100/33 69/101/33 68/102/33 67/103/33 66/104/33
f 113/105/34 114/106/34 178/107/34 177/108/34
f 87/109/35 88/110/35 152/111/35 151/112/35
f 74/113/36 75/114/36 139/115/36 138/116/36
f 88/110/37 89/117/37 153/118/37 152/111/37
f 75/114/38 76/119/38 140/120/38 139/115/38
f 89/117/39 90/121/39 154/122/39 153/118/39
f 76/119/40 77/123/40 141/124/40 140/120/40
f 90/121/41 91/125/41 155/126/41 154/122/41
f 77/123/42 78/127/42 142/128/42 141/124/42
f 91/125/43 92/129/43 156/130/43 155/126/43
f 78/131/44 79/132/44 143/133/44 142/134/44
f 65/135/45 66/136/45 129/137/45 130/138/45
f 92/129/46 93/139/46 157/140/46 156/130/46
f 79/132/47 80/141/47 144/142/47 143/133/47
f 66/136/48 67/143/48 131/144/48 129/137/48
f 93/145/49 94/146/49 158/147/49 157/148/49
f 80/141/50 81/149/50 145/150/50 144/142/50
f 67/143/51 68/151/51 132/152/51 131/144/51
f 94/146/52 95/153/52 159/154/52 158/147/52
f 81/149/34 82/155/34 146/156/34 145/150/34
f 68/151/53 69/157/53 133/158/53 132/152/53
f 95/153/54 96/159/54 160/160/54 159/154/54
f 82/155/55 83/161/55 147/162/55 146/156/55
f 69/157/56 70/163/56 134/164/56 133/158/56
f 96/159/57 65/135/57 130/138/57 160/160/57
f 83/161/58 84/165/58 148/166/58 147/162/58
f 70/167/59 71/168/59 135/169/59 134/170/59
f 84/165/60 85/171/60 149/172/60 148/166/60
f 71/168/61 72/173/61 136/174/61 135/169/61
f 85/175/62 86/176/62 150/177/62 149/178/62
f 72/173/63 73/179/63 137/180/63 136/174/63
f 86/176/64 87/109/64 151/112/64 150/177/64
f 73/179/65 74/113/65 138/116/65 137/180/65
f 98/181/66 97/182/66 130/183/66 129/184/66
f 99/185/66 98/181/66 129/184/66 131/186/66
f 100/187/66 99/185/66 131/186/66 132/188/66
f 101/189/66 100/187/66 132/188/66 133/190/66
f 102/191/66 101/189/66 133/190/66 134/82/66
f 103/192/66 102/191/66 134/82/66 135/81/66
f 104/193/66 103/192/66 135/81/66 136/194/66
f 105/195/66 104/193/66 136/194/66 137/196/66
f 106/197/66 105/195/66 137/196/66 138/198/66
f 107/199/66 106/197/66 138/198/66 139/200/66
f 108/201/66 107/199/66 139/200/66 140/202/66
f 109/203/66 108/201/66 140/202/66 141/204/66
f 110/205/66 109/203/66 141/204/66 142/206/66
f 111/207/66 110/205/66 142/206/66 143/208/66
f 112/209/66 111/207/66 143/208/66 144/210/66
f 113/211/66 112/209/66 144/210/66 145/212/66
f 114/213/66 113/211/66 145/212/66 146/214/66
f 115/215/66 114/213/66 146/214/66 147/216/66
f 116/217/66 115/215/66 147/216/66 148/218/66
f 117/219/66 116/217/66 148/218/66 149/220/66
f 118/221/66 117/219/66 149/220/66 150/222/66
f 119/223/66 118/221/66 150/222/66 151/224/66
f 120/225/66 119/223/66 151/224/66 152/226/66
f 121/227/66 120/225/66 152/226/66 153/228/66
f 122/229/66 121/227/66 153/228/66 154/230/66
f 123/231/66 122/229/66 154/230/66 155/232/66
f 124/233/66 123/231/66 155/232/66 156/234/66
f 125/235/66 124/233/66 156/234/66 157/236/66
f 126/237/66 125/235/66 157/236/66 158/238/66
f 127/239/66 126/237/66 158/238/66 159/240/66
f 128/241/66 127/239/66 159/240/66 160/242/66
f 97/182/66 128/241/66 160/242/66 130/183/66
f 100/243/53 101/244/53 165/245/53 164/246/53
f 127/247/54 128/248/54 192/249/54 191/250/54
f 114/106/55 115/251/55 179/252/55 178/107/55
f 101/244/56 102/253/56 166/254/56 165/245/56
f 128/248/57 97/255/57 162/256/57 192/249/57
f 115/251/58 116/257/58 180/258/58 179/252/58
f 102/259/59 103/260/59 167/261/59 166/262/59
f 116/257/60 117/263/60 181/264/60 180/258/60
f 103/260/61 104/265/61 168/266/61 167/261/61
f 117/267/62 118/268/62 182/269/62 181/270/62
f 104/265/63 105/271/63 169/272/63 168/266/63
f 118/268/64 119/273/64 183/274/64 182/269/64
f 105/271/65 106/275/65 170/276/65 169/272/65
f 119/273/35 120/277/35 184/278/35 183/274/35
f 106/275/36 107/279/36 171/280/36 170/276/36
f 120/277/37 121/281/37 185/282/37 184/278/37
f 107/279/38 108/283/38 172/284/38 171/280/38
f 121/281/39 122/285/39 186/286/39 185/282/39
f 108/283/40 109/287/40 173/288/40 172/284/40
f 122/285/41 123/289/41 187/290/41 186/286/41
f 109/287/42 110/291/42 174/292/42 173/288/42
f 123/289/43 124/293/43 188/294/43 187/290/43
f 110/295/44 111/296/44 175/297/44 174/298/44
f 97/255/45 98/299/45 161/300/45 162/256/45
f 124/293/46 125/301/46 189/302/46 188/294/46
f 111/296/47 112/303/47 176/304/47 175/297/47
f 98/299/48 99/305/48 163/306/48 161/300/48
f 125/307/49 126/308/49 190/309/49 189/310/49
f 112/303/50 113/105/50 177/108/50 176/304/50
f 99/305/51 100/243/51 164/246/51 163/306/51
f 126/308/52 127/247/52 191/250/52 190/309/52
f 193/311/33 224/312/33 223/313/33 222/314/33 221/315/33 220/316/33 219/317/33 218/318/33 217/319/33 216/320/33 215/321/33 214/322/33 213/323/33 212/324/33 211/325/33 210/326/33 209/327/33 208/328/33 207/329/33 206/330/33 205/331/33 204/332/33 203/333/33 202/334/33 201/335/33 200/336/33 199/337/33 198/338/33 197/339/33 196/340/33 195/341/33 194/342/33
f 241/343/34 242/344/34 306/345/34 305/346/34
f 215/347/35 216/348/35 280/349/35 279/350/35
f 202/351/36 203/352/36 267/353/36 266/354/36
f 216/348/37 217/355/37 281/356/37 280/349/37
f 203/352/38 204/357/38 268/358/38 267/353/38
f 217/355/39 218/359/39 282/360/39 281/356/39
f 204/357/40 205/361/40 269/362/40 268/358/40
f 218/359/41 219/363/41 283/364/41 282/360/41
f 205/361/42 206/365/42 270/366/42 269/362/42
f 219/363/43 220/367/43 284/368/43 283/364/43
f 206/369/44 207/370/44 271/371/44 270/372/44
f 193/373/45 194/374/45 257/375/45 258/376/45
f 220/367/46 221/377/46 285/378/46 284/368/46
f 207/370/47 208/379/47 272/380/47 271/371/47
f 194/374/48 195/381/48 259/382/48 257/375/48
f 221/383/49 222/384/49 286/385/49 285/386/49
f 208/379/50 209/387/50 273/388/50 272/380/50
f 195/381/51 196/389/51 260/390/51 259/382/51
f 222/384/52 223/391/52 287/392/52 286/385/52
f 209/387/34 210/393/34 274/394/34 273/388/34
f 196/389/53 197/395/53 261/396/53 260/390/53
f 223/391/54 224/397/54 288/398/54 287/392/54
f 210/393/55 211/399/55 275/400/55 274/394/55
f 197/395/56 198/401/56 262/402/56 261/396/56
f 224/397/57 193/373/57 258/376/57 288/398/57
f 211/399/58 212/403/58 276/404/58 275/400/58
f 198/405/59 199/406/59 263/407/59 262/408/59
f 212/403/60 213/409/60 277/410/60 276/404/60
f 199/406/61 200/411/61 264/412/61 263/407/61
f 213/413/62 214/414/62 278/415/62 277/416/62
f 200/411/63 201/417/63 265/418/63 264/412/63
f 214/414/64 215/347/64 279/350/64 278/415/64
f 201/417/65 202/351/65 266/354/65 265/418/65
f 226/419/66 225/420/66 258/421/66 257/422/66
f 227/423/66 226/419/66 257/422/66 259/424/66
f 228/425/66 227/423/66 259/424/66 260/426/66
f 229/427/66 228/425/66 260/426/66 261/428/66
f 230/429/66 229/427/66 261/428/66 262/430/66
f 231/431/66 230/429/66 262/430/66 263/432/66
f 232/433/66 231/431/66 263/432/66 264/434/66
f 233/435/66 232/433/66 264/434/66 265/436/66
f 234/437/66 233/435/66 265/436/66 266/438/66
f 235/439/66 234/437/66 266/438/66 267/440/66
f 236/441/66 235/439/66 267/440/66 268/442/66
f 237/443/66 236/441/66 268/442/66 269/444/66
f 238/445/66 237/443/66 269/444/66 270/446/66
f 239/447/66 238/445/66 270/446/66 271/448/66
f 240/449/66 239/447/66 271/448/66 272/450/66
f 241/451/66 240/449/66 272/450/66 273/452/66
f 242/453/66 241/451/66 273/452/66 274/454/66
f 243/455/66 242/453/66 274/454/66 275/456/66
f 244/457/66 243/455/66 275/456/66 276/458/66
f 245/459/66 244/457/66 276/458/66 277/460/66
f 246/461/66 245/459/66 277/460/66 278/462/66
f 247/463/66 246/461/66 278/462/66 279/464/66
f 248/465/66 247/463/66 279/464/66 280/98/66
f 249/466/66 248/465/66 280/98/66 281/97/66
f 250/467/66 249/466/66 281/97/66 282/468/66
f 251/469/66 250/467/66 282/468/66 283/470/66
f 252/471/66 251/469/66 283/470/66 284/472/66
f 253/473/66 252/471/66 284/472/66 285/474/66
f 254/475/66 253/473/66 285/474/66 286/476/66
f 255/477/66 254/475/66 286/476/66 287/478/66
f 256/479/66 255/477/66 287/478/66 288/480/66
f 225/420/66 256/479/66 288/480/66 258/421/66
f 228/481/53 229/482/53 293/483/53 292/484/53
f 255/485/54 256/486/54 320/487/54 319/488/54
f 242/344/55 243/489/55 307/490/55 306/345/55
f 229/482/56 230/491/56 294/492/56 293/483/56
f 256/486/57 225/493/57 290/494/57 320/487/57
f 243/489/58 244/495/58 308/496/58 307/490/58
f 230/497/59 231/498/59 295/499/59 294/500/59
f 244/495/60 245/501/60 309/502/60 308/496/60
f 231/498/61 232/503/61 296/504/61 295/499/61
f 245/505/62 246/506/62 310/507/62 309/508/62
f 232/503/63 233/509/63 297/510/63 296/504/63
f 246/506/64 247/511/64 311/512/64 310/507/64
f 233/509/65 234/513/65 298/514/65 297/510/65
f 247/511/35 248/515/35 312/516/35 311/512/35
f 234/513/36 235/517/36 299/518/36 298/514/36
f 248/515/37 249/519/37 313/520/37 312/516/37
f 235/517/38 236/521/38 300/522/38 299/518/38
f 249/519/39 250/523/39 314/524/39 313/520/39
f 236/521/40 237/525/40 301/526/40 300/522/40
f 250/523/41 251/527/41 315/528/41 314/524/41
f 237/525/42 238/529/42 302/530/42 301/526/42
f 251/527/43 252/531/43 316/532/43 315/528/43
f 238/533/44 239/534/44 303/535/44 302/536/44
f 225/493/45 226/537/45 289/538/45 290/494/45
f 252/531/46 253/539/46 317/540/46 316/532/46
f 239/534/47 240/541/47 304/542/47 303/535/47
f 226/537/48 227/543/48 291/544/48 289/538/48
f 253/545/49 254/546/49 318/547/49 317/548/49
f 240/541/50 241/343/50 305/346/50 304/542/50
f 227/543/51 228/481/51 292/484/51 291/544/51
f 254/546/52 255/485/52 319/488/52 318/547/52
f 162/256/67 161/300/67 475/549/67 476/550/67
f 161/300/68 163/306/68 470/551/68 475/549/68
f 163/306/69 164/246/69 465/552/69 470/551/69
f 164/246/70 165/245/70 460/553/70 465/552/70
f 165/245/71 166/254/71 455/554/71 460/553/71
f 166/262/72 167/261/72 450/555/72 455/556/72
f 167/261/73 168/266/73 445/557/73 450/555/73
f 168/266/74 169/272/74 440/558/74 445/557/74
f 169/272/75 170/276/75 435/559/75 440/558/75
f 170/276/76 171/280/76 430/560/76 435/559/76
f 171/280/77 172/284/77 425/561/77 430/560/77
f 172/284/78 173/288/78 420/562/78 425/561/78
f 173/288/79 174/292/79 415/563/79 420/562/79
f 174/298/80 175/297/80 410/564/80 415/565/80
f 175/297/81 176/304/81 405/566/81 410/564/81
f 176/304/82 177/108/82 400/567/82 405/566/82
f 177/108/83 178/107/83 395/568/83 400/567/83
f 178/107/84 179/252/84 390/569/84 395/568/84
f 179/252/85 180/258/85 385/570/85 390/569/85
f 180/258/86 181/264/86 380/571/86 385/570/86
f 181/270/87 182/269/87 375/572/87 380/573/87
f 182/269/88 183/274/88 370/574/88 375/572/88
f 183/274/89 184/278/89 365/575/89 370/574/89
f 184/278/90 185/282/90 360/576/90 365/575/90
f 185/282/91 186/286/91 355/577/91 360/576/91
f 186/286/92 187/290/92 350/578/92 355/577/92
f 187/290/93 188/294/93 345/579/93 350/578/93
f 188/294/94 189/302/94 340/580/94 345/579/94
f 189/310/95 190/309/95 335/581/95 340/582/95
f 190/309/96 191/250/96 330/583/96 335/581/96
f 191/250/97 192/249/97 325/584/97 330/583/97
f 192/249/98 162/256/98 476/550/98 325/584/98
f 330/583/99 325/584/99 324/585/99 329/586/99
f 329/586/100 324/585/100 323/587/100 328/588/100
f 328/589/101 323/590/101 322/591/101 327/592/101
f 327/592/102 322/591/102 321/593/102 326/594/102
f 326/594/103 321/593/103 3/4/103 5/6/103
f 335/581/104 330/583/104 329/586/104 334/595/104
f 334/595/105 329/586/105 328/588/105 333/596/105
f 333/597/106 328/589/106 327/592/106 332/598/106
f 332/598/107 327/592/107 326/594/107 331/599/107
f 331/599/108 326/594/108 5/6/108 7/8/108
f 340/582/109 335/581/109 334/595/109 339/600/109
f 339/601/110 334/602/110 333/603/110 338/604/110
f 338/605/111 333/597/111 332/598/111 337/606/111
f 337/606/112 332/598/112 331/599/112 336/607/112
f 336/607/113 331/599/113 7/8/113 9/10/113
f 345/579/114 340/580/114 339/601/114 344/608/114
f 344/608/115 339/601/115 338/604/115 343/609/115
f 343/609/116 338/604/116 337/610/116 342/611/116
f 342/611/117 337/610/117 336/612/117 341/613/117
f 341/613/118 336/612/118 9/11/118 11/14/118
f 350/578/119 345/579/119 344/608/119 349/614/119
f 349/614/120 344/608/120 343/609/120 348/615/120
f 348/615/121 343/609/121 342/611/121 347/616/121
f 347/616/122 342/611/122 341/613/122 346/617/122
f 346/617/123 341/613/123 11/14/123 13/16/123
f 355/577/124 350/578/124 349/614/124 354/618/124
f 354/618/125 349/614/125 348/615/125 353/619/125
f 353/619/126 348/615/126 347/616/126 352/620/126
f 352/620/127 347/616/127 346/617/127 351/621/127
f 351/621/128 346/617/128 13/16/128 15/18/128
f 360/576/129 355/577/129 354/618/129 359/622/129
f 359/622/130 354/618/130 353/619/130 358/623/130
f 358/623/131 353/619/131 352/620/131 357/624/131
f 357/624/132 352/620/132 351/621/132 356/625/132
f 356/625/133 351/621/133 15/18/133 17/20/133
f 365/575/134 360/576/134 359/622/134 364/626/134
f 364/626/135 359/622/135 358/623/135 363/627/135
f 363/627/136 358/623/136 357/624/136 362/628/136
f 362/628/137 357/624/137 356/625/137 361/629/137
f 361/629/138 356/625/138 17/20/138 19/22/138
f 370/574/139 365/575/139 364/626/139 369/630/139
f 369/630/140 364/626/140 363/627/140 368/631/140
f 368/631/141 363/627/141 362/628/141 367/632/141
f 367/632/142 362/628/142 361/629/142 366/633/142
f 366/633/143 361/629/143 19/22/143 21/24/143
f 375/572/144 370/574/144 369/630/144 374/634/144
f 374/634/145 369/630/145 368/631/145 373/635/145
f 373/635/146 368/631/146 367/632/146 372/636/146
f 372/636/147 367/632/147 366/633/147 371/637/147
f 371/637/148 366/633/148 21/24/148 23/26/148
f 380/573/149 375/572/149 374/634/149 379/638/149
f 379/638/150 374/634/150 373/635/150 378/639/150
f 378/639/151 373/635/151 372/636/151 377/640/151
f 377/640/152 372/636/152 371/637/152 376/641/152
f 376/641/153 371/637/153 23/26/153 25/28/153
f 385/570/154 380/571/154 379/642/154 384/643/154
f 384/643/155 379/642/155 378/644/155 383/645/155
f 383/646/156 378/647/156 377/648/156 382/649/156
f 382/649/157 377/648/157 376/650/157 381/651/157
f 381/651/158 376/650/158 25/29/158 27/32/158
f 390/569/159 385/570/159 384/643/159 389/652/159
f 389/653/160 384/654/160 383/655/160 388/656/160
f 388/657/161 383/646/161 382/649/161 387/658/161
f 387/658/162 382/649/162 381/651/162 386/659/162
f 386/659/163 381/651/163 27/32/163 29/34/163
f 395/568/164 390/569/164 389/652/164 394/660/164
f 394/661/165 389/653/165 388/656/165 393/662/165
f 393/663/166 388/657/166 387/658/166 392/664/166
f 392/664/167 387/658/167 386/659/167 391/665/167
f 391/665/168 386/659/168 29/34/168 31/36/168
f 400/567/169 395/568/169 394/660/169 399/666/169
f 399/667/170 394/661/170 393/662/170 398/668/170
f 398/669/171 393/663/171 392/664/171 397/670/171
f 397/670/172 392/664/172 391/665/172 396/671/172
f 396/671/173 391/665/173 31/36/173 33/38/173
f 405/566/174 400/567/174 399/666/174 404/672/174
f 404/673/175 399/667/175 398/668/175 403/674/175
f 403/675/176 398/669/176 397/670/176 402/676/176
f 402/676/177 397/670/177 396/671/177 401/677/177
f 401/677/178 396/671/178 33/38/178 35/40/178
f 410/564/179 405/566/179 404/672/179 409/678/179
f 409/679/180 404/673/180 403/674/180 408/680/180
f 408/681/181 403/675/181 402/676/181 407/682/181
f 407/682/182 402/676/182 401/677/182 406/683/182
f 406/683/183 401/677/183 35/40/183 37/42/183
f 415/565/184 410/564/184 409/678/184 414/684/184
f 414/685/185 409/679/185 408/680/185 413/686/185
f 413/687/186 408/681/186 407/682/186 412/688/186
f 412/688/187 407/682/187 406/683/187 411/689/187
f 411/689/188 406/683/188 37/42/188 39/44/188
f 420/562/189 415/563/189 414/690/189 419/691/189
f 419/691/190 414/690/190 413/692/190 418/693/190
f 418/694/191 413/687/191 412/688/191 417/695/191
f 417/695/192 412/688/192 411/689/192 416/696/192
f 416/696/193 411/689/193 39/44/193 41/46/193
f 425/561/194 420/562/194 419/691/194 424/697/194
f 424/697/195 419/691/195 418/693/195 423/698/195
f 423/698/196 418/693/196 417/699/196 422/700/196
f 422/700/197 417/699/197 416/701/197 421/702/197
f 421/702/198 416/701/198 41/47/198 43/50/198
f 430/560/199 425/561/199 424/697/199 429/703/199
f 429/703/200 424/697/200 423/698/200 428/704/200
f 428/704/201 423/698/201 422/700/201 427/705/201
f 427/705/202 422/700/202 421/702/202 426/706/202
f 426/706/203 421/702/203 43/50/203 45/52/203
f 435/559/204 430/560/204 429/703/204 434/707/204
f 434/707/205 429/703/205 428/704/205 433/708/205
f 433/708/206 428/704/206 427/705/206 432/709/206
f 432/709/207 427/705/207 426/706/207 431/710/207
f 431/710/208 426/706/208 45/52/208 47/54/208
f 440/558/209 435/559/209 434/707/209 439/711/209
f 439/711/210 434/707/210 433/708/210 438/712/210
f 438/712/211 433/708/211 432/709/211 437/713/211
f 437/713/212 432/709/212 431/710/212 436/714/212
f 436/714/213 431/710/213 47/54/213 49/56/213
f 445/557/214 440/558/214 439/711/214 444/715/214
f 444/715/215 439/711/215 438/712/215 443/716/215
f 443/716/216 438/712/216 437/713/216 442/717/216
f 442/717/217 437/713/217 436/714/217 441/718/217
f 441/718/218 436/714/218 49/56/218 51/58/218
f 450/555/219 445/557/219 444/715/219 449/719/219
f 449/719/220 444/715/220 443/716/220 448/720/220
f 448/720/221 443/716/221 442/717/221 447/721/221
f 447/721/222 442/717/222 441/718/222 446/722/222
f 446/722/223 441/718/223 51/58/223 53/60/223
f 455/556/224 450/555/224 449/719/224 454/723/224
f 454/723/225 449/719/225 448/720/225 453/724/225
f 453/724/226 448/720/226 447/721/226 452/725/226
f 452/725/227 447/721/227 446/722/227 451/726/227
f 451/726/228 446/722/228 53/60/228 55/62/228
f 460/553/229 455/554/229 454/727/229 459/728/229
f 459/729/230 454/723/230 453/724/230 458/730/230
f 458/730/231 453/724/231 452/725/231 457/731/231
f 457/731/232 452/725/232 451/726/232 456/732/232
f 456/732/233 451/726/233 55/62/233 57/64/233
f 465/552/234 460/553/234 459/728/234 464/733/234
f 464/733/235 459/728/235 458/734/235 463/735/235
f 463/736/236 458/737/236 457/738/236 462/739/236
f 462/739/237 457/738/237 456/740/237 461/741/237
f 461/741/238 456/740/238 57/65/238 59/68/238
f 470/551/239 465/552/239 464/733/239 469/742/239
f 469/742/240 464/733/240 463/735/240 468/743/240
f 468/744/241 463/736/241 462/739/241 467/745/241
f 467/745/242 462/739/242 461/741/242 466/746/242
f 466/746/243 461/741/243 59/68/243 61/70/243
f 475/549/244 470/551/244 469/742/244 474/747/244
f 474/747/245 469/742/245 468/743/245 473/748/245
f 473/749/246 468/744/246 467/745/246 472/750/246
f 472/750/247 467/745/247 466/746/247 471/751/247
f 471/751/248 466/746/248 61/70/248 63/72/248
f 476/550/249 475/549/249 474/747/249 477/752/249
f 477/752/250 474/747/250 473/748/250 478/753/250
f 478/754/251 473/749/251 472/750/251 479/755/251
f 479/755/252 472/750/252 471/751/252 480/756/252
f 480/756/253 471/751/253 63/72/253 1/1/253
f 325/584/254 476/550/254 477/752/254 324/585/254
f 324/585/255 477/752/255 478/753/255 323/587/255
f 323/590/256 478/754/256 479/755/256 322/591/256
f 322/591/257 479/755/257 480/756/257 321/593/257
f 321/593/258 480/756/258 1/1/258 3/4/258
f 306/345/259 307/490/259 635/757/259 636/758/259
f 307/490/260 308/496/260 630/759/260 635/757/260
f 308/496/261 309/502/261 625/760/261 630/759/261
f 309/508/262 310/507/262 620/761/262 625/762/262
f 310/507/263 311/512/263 615/763/263 620/761/263
f 311/512/264 312/516/264 610/764/264 615/763/264
f 312/516/265 313/520/265 605/765/265 610/764/265
f 313/520/266 314/524/266 600/766/266 605/765/266
f 314/524/267 315/528/267 595/767/267 600/766/267
f 315/528/268 316/532/268 590/768/268 595/767/268
f 316/532/269 317/540/269 585/769/269 590/768/269
f 317/548/270 318/547/270 580/770/270 585/771/270
f 318/547/271 319/488/271 575/772/271 580/770/271
f 319/488/272 320/487/272 570/773/272 575/772/272
f 320/487/273 290/494/273 565/774/273 570/773/273
f 290/494/274 289/538/274 560/775/274 565/774/274
f 289/538/275 291/544/275 555/776/275 560/775/275
f 291/544/276 292/484/276 550/777/276 555/776/276
f 292/484/277 293/483/277 545/778/277 550/777/277
f 293/483/278 294/492/278 540/779/278 545/778/278
f 294/500/279 295/499/279 535/780/279 540/781/279
f 295/499/280 296/504/280 530/782/280 535/780/280
f 296/504/281 297/510/281 525/783/281 530/782/281
f 297/510/282 298/514/282 520/784/282 525/783/282
f 298/514/283 299/518/283 515/785/283 520/784/283
f 299/518/284 300/522/284 510/786/284 515/785/284
f 300/522/285 301/526/285 505/787/285 510/786/285
f 301/526/286 302/530/286 500/788/286 505/787/286
f 302/536/287 303/535/287 495/789/287 500/790/287
f 303/535/288 304/542/288 490/791/288 495/789/288
f 304/542/289 305/346/289 485/792/289 490/791/289
f 305/346/290 306/345/290 636/758/290 485/792/290
f 490/791/291 485/792/291 484/793/291 489/794/291
f 489/794/292 484/793/292 483/795/292 488/796/292
f 488/797/293 483/798/293 482/799/293 487/800/293
f 487/800/294 482/799/294 481/801/294 486/802/294
f 486/802/295 481/801/295 2/2/295 64/71/295
f 495/789/296 490/791/296 489/794/296 494/803/296
f 494/803/297 489/794/297 488/796/297 493/804/297
f 493/805/298 488/797/298 487/800/298 492/806/298
f 492/806/299 487/800/299 486/802/299 491/807/299
f 491/807/300 486/802/300 64/71/300 62/69/300
f 500/790/301 495/789/301 494/803/301 499/808/301
f 499/808/302 494/803/302 493/804/302 498/809/302
f 498/810/303 493/805/303 492/806/303 497/811/303
f 497/811/304 492/806/304 491/807/304 496/812/304
f 496/812/305 491/807/305 62/69/305 60/67/305
f 505/787/306 500/788/306 499/813/306 504/814/306
f 504/814/307 499/813/307 498/815/307 503/816/307
f 503/817/308 498/810/308 497/811/308 502/818/308
f 502/818/309 497/811/309 496/812/309 501/819/309
f 501/819/310 496/812/310 60/67/310 58/66/310
f 510/786/311 505/787/311 504/814/311 509/820/311
f 509/820/312 504/814/312 503/816/312 508/821/312
f 508/821/313 503/816/313 502/822/313 507/823/313
f 507/823/314 502/822/314 501/824/314 506/825/314
f 506/825/315 501/824/315 58/63/315 56/61/315
f 515/785/316 510/786/316 509/820/316 514/826/316
f 514/826/317 509/820/317 508/821/317 513/827/317
f 513/827/318 508/821/318 507/823/318 512/828/318
f 512/828/319 507/823/319 506/825/319 511/829/319
f 511/829/320 506/825/320 56/61/320 54/59/320
f 520/784/321 515/785/321 514/826/321 519/830/321
f 519/830/322 514/826/322 513/827/322 518/831/322
f 518/831/323 513/827/323 512/828/323 517/832/323
f 517/832/324 512/828/324 511/829/324 516/833/324
f 516/833/325 511/829/325 54/59/325 52/57/325
f 525/783/326 520/784/326 519/830/326 524/834/326
f 524/834/327 519/830/327 518/831/327 523/835/327
f 523/835/328 518/831/328 517/832/328 522/836/328
f 522/836/329 517/832/329 516/833/329 521/837/329
f 521/837/330 516/833/330 52/57/330 50/55/330
f 530/782/331 525/783/331 524/834/331 529/838/331
f 529/838/332 524/834/332 523/835/332 528/839/332
f 528/839/333 523/835/333 522/836/333 527/840/333
f 527/840/334 522/836/334 521/837/334 526/841/334
f 526/841/335 521/837/335 50/55/335 48/53/335
f 535/780/336 530/782/336 529/838/336 534/842/336
f 534/842/337 529/838/337 528/839/337 533/843/337
f 533/843/338 528/839/338 527/840/338 532/844/338
f 532/844/339 527/840/339 526/841/339 531/845/339
f 531/845/340 526/841/340 48/53/340 46/51/340
f 540/781/341 535/780/341 534/842/341 539/846/341
f 539/846/342 534/842/342 533/843/342 538/847/342
f 538/847/343 533/843/343 532/844/343 537/848/343
f 537/848/344 532/844/344 531/845/344 536/849/344
f 536/849/345 531/845/345 46/51/345 44/49/345
f 545/778/346 540/779/346 539/850/346 544/851/346
f 544/852/347 539/846/347 538/847/347 543/853/347
f 543/853/348 538/847/348 537/848/348 542/854/348
f 542/854/349 537/848/349 536/849/349 541/855/349
f 541/855/350 536/849/350 44/49/350 42/48/350
f 550/777/351 545/778/351 544/851/351 549/856/351
f 549/856/352 544/851/352 543/857/352 548/858/352
f 548/859/353 543/860/353 542/861/353 547/862/353
f 547/862/354 542/861/354 541/863/354 546/864/354
f 546/864/355 541/863/355 42/45/355 40/43/355
f 555/776/356 550/777/356 549/856/356 554/865/356
f 554/866/357 549/867/357 548/868/357 553/869/357
f 553/870/358 548/859/358 547/862/358 552/871/358
f 552/871/359 547/862/359 546/864/359 551/872/359
f 551/872/360 546/864/360 40/43/360 38/41/360
f 560/775/361 555/776/361 554/865/361 559/873/361
f 559/874/362 554/866/362 553/869/362 558/875/362
f 558/876/363 553/870/363 552/871/363 557/877/363
f 557/877/364 552/871/364 551/872/364 556/878/364
f 556/878/365 551/872/365 38/41/365 36/39/365
f 565/774/366 560/775/366 559/873/366 564/879/366
f 564/880/367 559/874/367 558/875/367 563/881/367
f 563/882/368 558/876/368 557/877/368 562/883/368
f 562/883/369 557/877/369 556/878/369 561/884/369
f 561/884/370 556/878/370 36/39/370 34/37/370
f 570/773/371 565/774/371 564/879/371 569/885/371
f 569/886/372 564/880/372 563/881/372 568/887/372
f 568/888/373 563/882/373 562/883/373 567/889/373
f 567/889/374 562/883/374 561/884/374 566/890/374
f 566/890/375 561/884/375 34/37/375 32/35/375
f 575/772/376 570/773/376 569/885/376 574/891/376
f 574/892/377 569/886/377 568/887/377 573/893/377
f 573/894/378 568/888/378 567/889/378 572/895/378
f 572/895/379 567/889/379 566/890/379 571/896/379
f 571/896/380 566/890/380 32/35/380 30/33/380
f 580/770/381 575/772/381 574/891/381 579/897/381
f 579/898/382 574/892/382 573/893/382 578/899/382
f 578/900/383 573/894/383 572/895/383 577/901/383
f 577/901/384 572/895/384 571/896/384 576/902/384
f 576/902/385 571/896/385 30/33/385 28/31/385
f 585/771/386 580/770/386 579/897/386 584/903/386
f 584/904/387 579/905/387 578/906/387 583/907/387
f 583/908/388 578/900/388 577/901/388 582/909/388
f 582/909/389 577/901/389 576/902/389 581/910/389
f 581/910/390 576/902/390 28/31/390 26/30/390
f 590/768/391 585/769/391 584/904/391 589/911/391
f 589/911/392 584/904/392 583/907/392 588/912/392
f 588/912/393 583/907/393 582/913/393 587/914/393
f 587/914/394 582/913/394 581/915/394 586/916/394
f 586/916/395 581/915/395 26/27/395 24/25/395
f 595/767/396 590/768/396 589/911/396 594/917/396
f 594/917/397 589/911/397 588/912/397 593/918/397
f 593/918/398 588/912/398 587/914/398 592/919/398
f 592/919/399 587/914/399 586/916/399 591/920/399
f 591/920/400 586/916/400 24/25/400 22/23/400
f 600/766/401 595/767/401 594/917/401 599/921/401
f 599/921/402 594/917/402 593/918/402 598/922/402
f 598/922/403 593/918/403 592/919/403 597/923/403
f 597/923/404 592/919/404 591/920/404 596/924/404
f 596/924/405 591/920/405 22/23/405 20/21/405
f 605/765/406 600/766/406 599/921/406 604/925/406
f 604/925/407 599/921/407 598/922/407 603/926/407
f 603/926/408 598/922/408 597/923/408 602/927/408
f 602/927/409 597/923/409 596/924/409 601/928/409
f 601/928/410 596/924/410 20/21/410 18/19/410
f 610/764/411 605/765/411 604/925/411 609/929/411
f 609/929/412 604/925/412 603/926/412 608/930/412
f 608/930/413 603/926/413 602/927/413 607/931/413
f 607/931/414 602/927/414 601/928/414 606/932/414
f 606/932/415 601/928/415 18/19/415 16/17/415
f 615/763/416 610/764/416 609/929/416 614/933/416
f 614/933/417 609/929/417 608/930/417 613/934/417
f 613/934/418 608/930/418 607/931/418 612/935/418
f 612/935/419 607/931/419 606/932/419 611/936/419
f 611/936/420 606/932/420 16/17/420 14/15/420
f 620/761/421 615/763/421 614/933/421 619/937/421
f 619/937/422 614/933/422 613/934/422 618/938/422
f 618/938/423 613/934/423 612/935/423 617/939/423
f 617/939/424 612/935/424 611/936/424 616/940/424
f 616/940/425 611/936/425 14/15/425 12/13/425
f 625/762/426 620/761/426 619/937/426 624/941/426
f 624/941/427 619/937/427 618/938/427 623/942/427
f 623/942/428 618/938/428 617/939/428 622/943/428
f 622/943/429 617/939/429 616/940/429 621/944/429
f 621/944/430 616/940/430 12/13/430 10/12/430
f 630/759/431 625/760/431 624/945/431 629/946/431
f 629/946/432 624/945/432 623/947/432 628/948/432
f 628/949/433 623/950/433 622/951/433 627/952/433
f 627/952/434 622/951/434 621/953/434 626/954/434
f 626/954/435 621/953/435 10/9/435 8/7/435
f 635/757/436 630/759/436 629/946/436 634/955/436
f 634/955/437 629/946/437 628/948/437 633/956/437
f 633/957/438 628/949/438 627/952/438 632/958/438
f 632/958/439 627/952/439 626/954/439 631/959/439
f 631/959/440 626/954/440 8/7/440 6/5/440
f 636/758/441 635/757/441 634/955/441 637/960/441
f 637/960/442 634/955/442 633/956/442 638/961/442
f 638/962/443 633/957/443 632/958/443 639/963/443
f 639/963/444 632/958/444 631/959/444 640/964/444
f 640/964/445 631/959/445 6/5/445 4/3/445
f 485/792/446 636/758/446 637/960/446 484/793/446
f 484/793/447 637/960/447 638/961/447 483/795/447
f 483/798/448 638/962/448 639/963/448 482/799/448
f 482/799/449 639/963/449 640/964/449 481/801/449
f 481/801/450 640/964/450 4/3/450 2/2/450
